<svg xmlns="http://www.w3.org/2000/svg" viewBox="0 0 55 55"><defs><style>.cls-1{fill:#00a486;}</style></defs><title>Artboard 10</title><g id="Layer_2" data-name="Layer 2"><path class="cls-1" d="M6.81,37.63a.64.64,0,0,0-.63.65V48.51a.64.64,0,0,0,1.28,0s0,0,0,0V38.27a.64.64,0,0,0-.63-.65h0Z"/><path class="cls-1" d="M11.42,37.63a.64.64,0,0,0-.63.65V48.51a.64.64,0,0,0,1.28,0s0,0,0,0V38.27a.64.64,0,0,0-.63-.65h0Z"/><path class="cls-1" d="M16,37.63a.64.64,0,0,0-.63.65V48.51a.64.64,0,0,0,1.28,0s0,0,0,0V38.27a.64.64,0,0,0-.63-.65h0Z"/><path class="cls-1" d="M20.63,37.63a.64.64,0,0,0-.63.65V48.51a.64.64,0,0,0,1.28,0s0,0,0,0V38.27a.64.64,0,0,0-.63-.65h0Z"/><path class="cls-1" d="M25.23,37.63a.64.64,0,0,0-.63.65V48.51a.64.64,0,0,0,1.28,0s0,0,0,0V38.27a.64.64,0,0,0-.63-.65h0Z"/><path class="cls-1" d="M29.84,37.63a.64.64,0,0,0-.63.65V48.51a.64.64,0,0,0,1.28,0s0,0,0,0V38.27a.64.64,0,0,0-.63-.65h0Z"/><path class="cls-1" d="M41.34,38.88A5.12,5.12,0,1,0,46.46,44,5.13,5.13,0,0,0,41.34,38.88Zm0,1.28A3.84,3.84,0,1,1,37.5,44,3.83,3.83,0,0,1,41.34,40.16Z"/><path class="cls-1" d="M6.89,22.49a.64.64,0,0,0-.5.64v9a.64.64,0,0,0,.64.64H48a.64.64,0,0,0,.64-.64v-9a.64.64,0,0,0-.64-.64H6.89Zm.78,1.28H33.94v7.67H7.67Zm27.54,0H47.33v7.67H35.21Z"/><path class="cls-1" d="M15.23,0a.64.64,0,0,0-.16,1.22L31.68,9H5.6A.64.64,0,0,0,5,9.65v6.91H4.82A4.83,4.83,0,0,0,0,21.37V50.2A4.83,4.83,0,0,0,4.82,55H50.18A4.83,4.83,0,0,0,55,50.2V21.37a4.83,4.83,0,0,0-4.82-4.8H50s0,0,0-.06V9.65A.64.64,0,0,0,49.4,9H34.67L15.61.06a.64.64,0,0,0-.3-.06h-.08Zm-9,10.29H34.39l13.37,6.28H6.24Zm31.18,0H48.76v5.34ZM4.82,17.85H50.18a3.54,3.54,0,0,1,3.54,3.52V50.2a3.53,3.53,0,0,1-3.54,3.52H4.82A3.53,3.53,0,0,1,1.28,50.2V21.37a3.54,3.54,0,0,1,3.54-3.52Z"/></g></svg>