<svg xmlns="http://www.w3.org/2000/svg" viewBox="0 0 55 55"><defs><style>.cls-1{fill:#498a45;}</style></defs><title>Asset 4</title><g id="Layer_2" data-name="Layer 2"><g id="Layer_2-2" data-name="Layer 2"><path class="cls-1" d="M52.25,9.9H2.75a1.07,1.07,0,1,1,0-2.14h49.5a1.07,1.07,0,1,1,0,2.14m-3.58,1.76v24a1.9,1.9,0,0,1-1.92,1.87H8.24A1.9,1.9,0,0,1,6.32,35.7v-24a.79.79,0,0,0,0-.16H48.68a.79.79,0,0,0,0,.16m3.58-5.5H28.32V.8a.83.83,0,0,0-1.65,0V6.16H2.75a2.67,2.67,0,1,0,0,5.34H4.68a.79.79,0,0,0,0,.16v24a3.53,3.53,0,0,0,3.58,3.47H26.67v4.08L16,53.63a.79.79,0,0,0,0,1.13.84.84,0,0,0,1.17,0l9.52-9.25V54.2a.83.83,0,0,0,1.65,0V45.51l9.55,9.25a.84.84,0,0,0,1.17,0,.79.79,0,0,0,0-1.13L28.32,43.25V39.17H46.74a3.53,3.53,0,0,0,3.57-3.47v-24a.79.79,0,0,0,0-.16h1.95a2.67,2.67,0,1,0,0-5.34"/></g></g></svg>