<svg xmlns="http://www.w3.org/2000/svg" viewBox="0 0 62.84 55"><defs><style>.cls-1{fill:#498A45;}</style></defs><title>Artboard 17</title><g id="Layer_2" data-name="Layer 2"><path class="cls-1" d="M4.6,26.09a.68.68,0,1,0,.68.68A.66.66,0,0,0,4.6,26.09Z"/><path class="cls-1" d="M7.79,26.09a.68.68,0,0,0,0,1.36.68.68,0,0,0,.68-.52v-.16A.69.69,0,0,0,7.79,26.09Z"/><path class="cls-1" d="M10.93,26.09a.69.69,0,0,0-.68.68v.16a.7.7,0,0,0,1.36,0v-.16A.63.63,0,0,0,10.93,26.09Z"/><path class="cls-1" d="M50.66,43.08a3.17,3.17,0,0,0-1.83.58l-7-7A14.32,14.32,0,0,0,45.69,27a14.13,14.13,0,0,0-3.82-9.72l7-7a3.17,3.17,0,0,0,1.83.58,2.93,2.93,0,0,0,2.2-.94,3.13,3.13,0,0,0,.94-2.2,2.93,2.93,0,0,0-.94-2.2,3.13,3.13,0,0,0-2.2-.94,2.93,2.93,0,0,0-2.2.94,3.13,3.13,0,0,0-.94,2.2,3.17,3.17,0,0,0,.58,1.83l-7,7a14.3,14.3,0,0,0-19.45,0L14.59,9.36a3.17,3.17,0,0,0,.58-1.83,2.93,2.93,0,0,0-.94-2.2A3.13,3.13,0,0,0,12,4.39a2.93,2.93,0,0,0-2.2.94,3.19,3.19,0,0,0,0,4.44,3.1,3.1,0,0,0,2.2.94,3.43,3.43,0,0,0,1.83-.58L21,17.25A14.3,14.3,0,0,0,21,36.7l-6.64,6.64-.05-.05a3.14,3.14,0,1,0-4.44,4.44,3.13,3.13,0,0,0,2.2.94,2.93,2.93,0,0,0,2.2-.94,3.13,3.13,0,0,0,.94-2.2,3.64,3.64,0,0,0-.26-1.31l6.8-6.8a14.32,14.32,0,0,0,9.72,3.82,14.13,14.13,0,0,0,9.72-3.82l7,7a3.14,3.14,0,0,0,2.51,5,2.93,2.93,0,0,0,2.2-.94,3.19,3.19,0,0,0,0-4.44A2.88,2.88,0,0,0,50.66,43.08ZM14.12,45.54A1.9,1.9,0,0,1,13.49,47a2.18,2.18,0,0,1-3,0A2.12,2.12,0,0,1,12,43.39a2,2,0,0,1,1.46.63A2,2,0,0,1,14.12,45.54ZM49.2,47.68a2.12,2.12,0,0,1,1.46-3.61,2,2,0,0,1,1.46.63,2.08,2.08,0,0,1,0,3A2,2,0,0,1,49.2,47.68Zm-.63-40a1.9,1.9,0,0,1,.63-1.46,2.06,2.06,0,0,1,1.46-.63,2,2,0,0,1,1.46.63,2.06,2.06,0,0,1,.63,1.46,2,2,0,0,1-.63,1.46,2.06,2.06,0,0,1-1.46.63,1.9,1.9,0,0,1-1.46-.63A1.9,1.9,0,0,1,48.57,7.69ZM12,5.44a2,2,0,0,1,1.46.63,2.06,2.06,0,0,1,.63,1.46A2,2,0,0,1,13.49,9a2.11,2.11,0,1,1-3-3A2.28,2.28,0,0,1,12,5.44Zm10,30.9A13.25,13.25,0,0,1,31.37,13.7a13,13,0,0,1,9.36,3.87,13.39,13.39,0,0,1,3.87,9.36,13,13,0,0,1-3.87,9.36A13.19,13.19,0,0,1,22,36.34Z"/><path class="cls-1" d="M35.66,19.76a.61.61,0,0,0-.37-.26.59.59,0,0,0-.42.16L23.74,30.58l-1.15.47a.51.51,0,0,0-.37.42.74.74,0,0,0,.05.58l1.2,2a.6.6,0,0,0,.47.31H24a.59.59,0,0,0,.42-.16l.94-.78,3.71-1a2.45,2.45,0,0,0,.94,1,2.24,2.24,0,0,0,1.15.31,3.06,3.06,0,0,0,.68-.1l.94-.26a2.42,2.42,0,0,0,1.73-2.46l5.75-1.78a.7.7,0,0,0,.37-.31.51.51,0,0,0-.05-.47Zm-2,2.51,3.82,6.59-12.08,3.5-.73-1.25ZM24.1,33.15l-.73-1.31.42-.16.68,1.2Zm8.47-.89-.94.26a1.44,1.44,0,0,1-1-.1,1.41,1.41,0,0,1-.42-.37l3.4-1A1.49,1.49,0,0,1,32.57,32.26Zm6-3.71-4.08-7.06.63-.63,4.29,7.42Z"/><path class="cls-1" d="M24.21,11.08H38.69a.49.49,0,0,0,.52-.52V.52A.49.49,0,0,0,38.69,0H24.21a.49.49,0,0,0-.52.52v10A.52.52,0,0,0,24.21,11.08Zm.52-1V1.73l6.38,5.8a.51.51,0,0,0,.73,0l6.38-5.8V10Zm.78-9H37.28L31.42,6.38Z"/><path class="cls-1" d="M38.64,42.87H24.15a.49.49,0,0,0-.52.52V54.48a.49.49,0,0,0,.52.52H38.64a.49.49,0,0,0,.52-.52V43.39A.52.52,0,0,0,38.64,42.87ZM38.11,54H24.68v-10H38.11Z"/><path class="cls-1" d="M29,51.92a.68.68,0,0,0,.52,0l4.34-2.51a.55.55,0,0,0,0-.94L29.49,46A.47.47,0,0,0,29,46a.55.55,0,0,0-.26.47v5A.55.55,0,0,0,29,51.92Zm.78-4.6,2.77,1.62-2.77,1.62Z"/><path class="cls-1" d="M15.53,31.26V22.32A.49.49,0,0,0,15,21.8H.52a.49.49,0,0,0-.52.52v9a.49.49,0,0,0,.52.52h2v3.82a.46.46,0,0,0,.31.47c.05,0,.1.05.21.05A.47.47,0,0,0,3.45,36l3.92-4.13H15A.73.73,0,0,0,15.53,31.26ZM6.8,30.9,3.61,34.3v-3a.49.49,0,0,0-.52-.52H1V22.85H14.48v7.95H7.16A.32.32,0,0,0,6.8,30.9Z"/><path class="cls-1" d="M62.32,20.86H47.84a.49.49,0,0,0-.52.52V32.47a.49.49,0,0,0,.52.52H62.32a.49.49,0,0,0,.52-.52V21.38A.56.56,0,0,0,62.32,20.86ZM61.8,31.94H48.36v-10H61.8Z"/><path class="cls-1" d="M51.6,31h1.57a.5.5,0,0,0,.47-.37,2.14,2.14,0,0,0,.58.05h3.14a1.13,1.13,0,0,0,1.1-1,22,22,0,0,0,.63-2.93,1,1,0,0,0-.63-1,2,2,0,0,0-.52-.16H56.25a6.74,6.74,0,0,0,.05-1.46,1.31,1.31,0,0,0-.42-.94,1.16,1.16,0,0,0-1-.31.74.74,0,0,0-.31.1l-.21.1a.55.55,0,0,0-.26.47v.58a1.67,1.67,0,0,1-.16.73,1.88,1.88,0,0,1-.42.63l-.21.21a.39.39,0,0,0-.26-.05H51.5a.49.49,0,0,0-.52.52v4.23C51.08,30.74,51.29,31,51.6,31Zm2.77-4.71a3.22,3.22,0,0,0,.63-1,2.81,2.81,0,0,0,.21-1.15v-.21a.39.39,0,0,1,.05.26,6.9,6.9,0,0,1-.1,1.46L55.1,26a.41.41,0,0,0,.1.42.65.65,0,0,0,.42.21h2.3a.05.05,0,0,1,.05.05c0,.21-.31,1.57-.58,2.77v.1a.05.05,0,0,1-.05.05H54.22a1.61,1.61,0,0,1-.52-.05V27Zm-2.25.47h.52V29.9h-.52Z"/></g></svg>