<svg id="Layer_2" data-name="Layer 2" xmlns="http://www.w3.org/2000/svg" viewBox="0 0 40.37 53.8"><defs><style>.cls-1{fill:#fff;}</style></defs><title>Artboard 29</title><path class="cls-1" d="M22,53.8a.66.66,0,0,1-.53-.24l-6.83-9.42L7.86,53.56a.66.66,0,0,1-.53.24A.59.59,0,0,1,7,53.7a.68.68,0,0,1-.14-.87l7.08-9.77-1.58-2.18c-1.24-1.72-2.49-3.44-3.74-5.14l-.18-.25H.62A.67.67,0,0,1,0,34.86V16.52a.75.75,0,0,1,.62-.62H4.18L2.63,14.8a6.13,6.13,0,1,1,7,0L8.07,15.9H19.2l-1.86-1.11a8,8,0,1,1,8.13,0L23.62,15.9h5.13a.68.68,0,0,1,.62.62V20l10.24-2.28h.11a.69.69,0,0,1,.49.18.6.6,0,0,1,.16.44V33a.7.7,0,0,1-.66.61L29.37,31.34v3.52a.68.68,0,0,1-.62.62H21l-.18.24c-1,1.38-2,2.77-3,4.17l-2.29,3.16,7.08,9.77a.68.68,0,0,1-.14.87A.59.59,0,0,1,22,53.8ZM14.68,42l4.71-6.51H10ZM1.25,34.24H28.12V17.14H1.25ZM29.37,21.29v8.78l9.76,2.18V19.11Zm-8-20A6.71,6.71,0,1,0,28.12,8,6.72,6.72,0,0,0,21.41,1.25ZM6.13,4.91A4.88,4.88,0,1,0,11,9.79,4.88,4.88,0,0,0,6.13,4.91Z"/></svg>