<svg xmlns="http://www.w3.org/2000/svg" viewBox="0 0 55 53.47"><defs><style>.cls-1{fill:#498A45;}</style></defs><title>Artboard 11</title><g id="Layer_2" data-name="Layer 2"><rect class="cls-1" x="20.44" y="1.79" width="1.28" height="9.06" transform="translate(3.7 19.81) rotate(-54.51)"/><path class="cls-1" d="M15.85,5.18a2.59,2.59,0,1,1,2.59-2.59A2.59,2.59,0,0,1,15.85,5.18Zm0-3.88a1.29,1.29,0,1,0,1.29,1.29,1.29,1.29,0,0,0-1.29-1.29h0Z"/><path class="cls-1" d="M15.85,5.18a2.59,2.59,0,1,1,2.59-2.59A2.59,2.59,0,0,1,15.85,5.18Zm0-3.88a1.29,1.29,0,1,0,1.29,1.29,1.29,1.29,0,0,0-1.29-1.29h0Z"/><path class="cls-1" d="M32.88,12.82H31.58a4.11,4.11,0,0,0-8.22,0H22.08a5.4,5.4,0,1,1,10.8,0Z"/><path class="cls-1" d="M32.88,13.44H31.58v-.61a4.11,4.11,0,0,0-8.22,0v.61H22.08v-.61a5.38,5.38,0,1,1,10.76,0v.61Z"/><rect class="cls-1" x="29.39" y="5.68" width="9.06" height="1.28" transform="translate(2.62 20.85) rotate(-35.46)"/><path class="cls-1" d="M39.15,5.18a2.59,2.59,0,1,1,2.59-2.59A2.59,2.59,0,0,1,39.15,5.18Zm0-3.88a1.29,1.29,0,1,0,1.29,1.29,1.29,1.29,0,0,0-1.29-1.29h0Z"/><path class="cls-1" d="M39.15,5.18a2.59,2.59,0,1,1,2.59-2.59A2.59,2.59,0,0,1,39.15,5.18Zm0-3.88a1.29,1.29,0,1,0,1.29,1.29,1.29,1.29,0,0,0-1.29-1.29h0Z"/><path class="cls-1" d="M32.88,12.82H31.58a4.11,4.11,0,0,0-8.22,0H22.08a5.4,5.4,0,1,1,10.8,0Z"/><polygon class="cls-1" points="13.39 53.47 3.52 53.47 3.52 49.83 4.79 49.83 4.79 52.19 12.11 52.19 12.11 49.83 13.39 49.83 13.39 53.47"/><polygon class="cls-1" points="51.42 53.47 41.55 53.47 41.55 49.83 42.82 49.83 42.82 52.19 50.15 52.19 50.15 49.83 51.42 49.83 51.42 53.47"/><path class="cls-1" d="M52.06,50.46H2.94A2.94,2.94,0,0,1,0,47.52H0V15.74A2.94,2.94,0,0,1,2.94,12.8H52.06A2.94,2.94,0,0,1,55,15.74h0V47.53A2.94,2.94,0,0,1,52.06,50.46ZM2.94,14.07a1.67,1.67,0,0,0-1.66,1.67V47.53a1.67,1.67,0,0,0,1.66,1.66H52.06a1.67,1.67,0,0,0,1.66-1.66V15.74a1.67,1.67,0,0,0-1.66-1.67Z"/><path class="cls-1" d="M37.31,45.92H9.2a4.53,4.53,0,0,1-4.53-4.47V21.8A4.53,4.53,0,0,1,9.2,17.33H37.31a4.53,4.53,0,0,1,4.53,4.47V41.45A4.53,4.53,0,0,1,37.31,45.92ZM9.2,18.57A3.24,3.24,0,0,0,6,21.77V41.45a3.24,3.24,0,0,0,3.24,3.2H37.31a3.24,3.24,0,0,0,3.24-3.2V21.8a3.24,3.24,0,0,0-3.24-3.2H9.2Z"/><rect class="cls-1" x="44.24" y="36.3" width="1.6" height="1.6"/><rect class="cls-1" x="46.64" y="36.3" width="1.6" height="1.6"/><rect class="cls-1" x="49.03" y="36.3" width="1.6" height="1.6"/><rect class="cls-1" x="44.24" y="39.5" width="1.6" height="1.6"/><rect class="cls-1" x="46.64" y="39.5" width="1.6" height="1.6"/><rect class="cls-1" x="49.03" y="39.5" width="1.6" height="1.6"/><rect class="cls-1" x="44.24" y="42.7" width="1.6" height="1.6"/><rect class="cls-1" x="46.64" y="42.7" width="1.6" height="1.6"/><rect class="cls-1" x="49.03" y="42.7" width="1.6" height="1.6"/><path class="cls-1" d="M47.43,24.45A2.42,2.42,0,1,1,49.85,22h0A2.43,2.43,0,0,1,47.43,24.45Zm0-3.57A1.15,1.15,0,1,0,48.58,22h0A1.15,1.15,0,0,0,47.43,20.88Z"/><path class="cls-1" d="M47.43,33.24a2.42,2.42,0,1,1,2.42-2.42h0A2.43,2.43,0,0,1,47.43,33.24Zm0-3.57a1.15,1.15,0,1,0,1.15,1.15h0A1.15,1.15,0,0,0,47.43,29.67Z"/></g></svg>