<svg id="Layer_2" data-name="Layer 2" xmlns="http://www.w3.org/2000/svg" viewBox="0 0 49.49 53.84"><defs><style>.cls-1{fill:#fff;}</style></defs><title>Artboard 26</title><circle class="cls-1" cx="15.87" cy="12.39" r="1.89"/><circle class="cls-1" cx="35.24" cy="12.39" r="1.89"/><circle class="cls-1" cx="25.55" cy="12.39" r="1.89"/><path class="cls-1" d="M9.44,24.3H7.13a5,5,0,0,1-4.94-4.95V4.95A5,5,0,0,1,7.13,0H44a5,5,0,0,1,4.94,4.95V19.36A5,5,0,0,1,44,24.3H19.39l-.18.19c-2.12,2.28-4.27,4.83-4.29,4.85l-.45.54Zm5,3.68.44-.52c1-1.12,2.41-2.76,3.78-4.22l.19-.2H44a3.7,3.7,0,0,0,3.7-3.7V4.95A3.7,3.7,0,0,0,44,1.25H7.13a3.7,3.7,0,0,0-3.7,3.7V19.36a3.7,3.7,0,0,0,3.7,3.7H10Z"/><path class="cls-1" d="M24.76,39a5.63,5.63,0,1,1,5.63-5.63A5.64,5.64,0,0,1,24.76,39Zm0-10.14a4.51,4.51,0,1,0,4.51,4.51A4.51,4.51,0,0,0,24.76,28.88Z"/><path class="cls-1" d="M33.6,53.8l0-4.42a5.44,5.44,0,0,0-5.43-5.43H21.32a5.44,5.44,0,0,0-5.43,5.43v4.45l-1.16,0,0-3.15a2.7,2.7,0,0,0-.93-2.07,4.75,4.75,0,0,0-3.07-1.13H5.93c-2.85,0-4.77,1.67-4.77,4.15v2.23L0,53.8l0-2.2c0-3.06,2.48-5.28,5.89-5.28h4.83a5.82,5.82,0,0,1,3.47,1.15l.65.48.27-.76a6.58,6.58,0,0,1,6.17-4.37H28.2a6.58,6.58,0,0,1,6.17,4.37l.27.76.65-.48a5.83,5.83,0,0,1,3.47-1.15H43.6c3.41,0,5.89,2.22,5.9,5.28v2.2H48.33l0-2.2c0-2.49-1.92-4.15-4.77-4.15H38.77a4.75,4.75,0,0,0-3.07,1.13,2.7,2.7,0,0,0-.93,2.07v3.19Z"/><path class="cls-1" d="M41.18,43.18a5.63,5.63,0,1,1,5.63-5.63A5.64,5.64,0,0,1,41.18,43.18Zm0-10.14a4.51,4.51,0,1,0,4.5,4.51A4.51,4.51,0,0,0,41.18,33Z"/><path class="cls-1" d="M8.34,43.18A5.63,5.63,0,1,1,14,37.55,5.64,5.64,0,0,1,8.34,43.18ZM8.34,33a4.51,4.51,0,1,0,4.51,4.51A4.51,4.51,0,0,0,8.34,33Z"/></svg>