<svg xmlns="http://www.w3.org/2000/svg" viewBox="0 0 48.79 55"><defs><style>.cls-1{fill:#498A45;}</style></defs><title>Artboard 16</title><g id="Layer_2" data-name="Layer 2"><path class="cls-1" d="M29.79,55a.69.69,0,0,1-.41-.18.55.55,0,0,1,0-.81A5,5,0,0,1,33,52.54h.23a3.78,3.78,0,0,0,3.6-2.5l.29-.79h-6a17.16,17.16,0,0,1-6.69-1.36,14.34,14.34,0,0,0-5-1.22l-.52,0-.1.51a.56.56,0,0,1-.6.47H.59A.53.53,0,0,1,0,47V26a.53.53,0,0,1,.59-.59H18.18a.53.53,0,0,1,.59.59v1l.62,0A9.25,9.25,0,0,0,25,24.47a7.41,7.41,0,0,1,5-1.9,8.26,8.26,0,0,1,1,.06l.7.08-.29-5.05-.19-.16A9.84,9.84,0,0,1,27.79,10a10,10,0,0,1,19.94,0A9.71,9.71,0,0,1,44.3,17.5l-.18.16-.77,8.81.46.13a3.32,3.32,0,0,1,2.39,3.19,3.36,3.36,0,0,1-.29,1.5l-.32.63.68.19a3.43,3.43,0,0,1,2.51,3.19,3.17,3.17,0,0,1-2.58,3.06l-.75.15.34.69a3.16,3.16,0,0,1,.29,1.38,3.43,3.43,0,0,1-2.51,3.19L42.9,44l.32.63A3.15,3.15,0,0,1,43.51,46a3.33,3.33,0,0,1-3.28,3.28h-2l-.1.46a5.07,5.07,0,0,1-4.94,4H33a3.86,3.86,0,0,0-2.76,1.11A.49.49,0,0,1,29.79,55Zm.35-31.31A6,6,0,0,0,26,25.37a10.08,10.08,0,0,1-6.43,2.9l-.56,0V45.47l.55,0a15.94,15.94,0,0,1,5.55,1.36,15.44,15.44,0,0,0,6.22,1.34h9.15a2.11,2.11,0,1,0,0-4.22H37.88a.59.59,0,1,1,0-1.17h5a2.11,2.11,0,0,0,0-4.22h-5a.59.59,0,0,1,0-1.17h7.51A2.08,2.08,0,0,0,47,36.74a2.36,2.36,0,0,0,.54-1.85,2.12,2.12,0,0,0-2.11-2.05H37.88a.59.59,0,1,1,0-1.17h5a2.11,2.11,0,0,0,0-4.22H32.6A.51.51,0,0,1,32,27l-.14-3.05-.46-.08A6.93,6.93,0,0,0,30.14,23.69ZM1.41,46.56H17.83V26.74H1.41ZM33.22,26.5h8.95L43,18.18H32.81Zm-4-15a8.53,8.53,0,0,0,3.15,5.4l.16.12H43.37l.16-.14a9,9,0,0,0,3-5.39l.16-.88-.87.21a34.86,34.86,0,0,1-8,.92,33.32,33.32,0,0,1-7.95-.92l-.88-.22ZM37.88,1.29a8.84,8.84,0,0,0-8.67,7.54l-.07.5.49.15a29.72,29.72,0,0,0,8.26,1.08,29.72,29.72,0,0,0,8.26-1.08l.49-.15-.07-.5A8.84,8.84,0,0,0,37.88,1.29Z"/></g></svg>