<svg xmlns="http://www.w3.org/2000/svg" viewBox="0 0 55 55"><defs><style>.cls-1{fill:#498A45;}</style></defs><title>Artboard 18</title><g id="Layer_2" data-name="Layer 2"><path class="cls-1" d="M6.3,55A6.3,6.3,0,0,1,1.85,44.24l11.6-11.6-.1-.2a22.16,22.16,0,1,1,9.21,9.21l-.2-.1-11.6,11.6A6.26,6.26,0,0,1,6.3,55ZM2.69,45.08a5.11,5.11,0,0,0,7.23,7.23l.6-.6L3.28,44.48Zm1.44-1.44,7.23,7.23,2.3-2.3L6.42,41.34Zm7.17.9,3.2,3.2,16.2-16.2-3.2-3.2L14.68,41.16l-.84-.84L26.66,27.5l-3.2-3.2L7.26,40.5l3.2,3.2,1.16-1.16.84.84Zm11.92-3.85.38.19a20.95,20.95,0,1,0-9.48-9.48l.19.38,3.85-3.85-.07-.18a15.84,15.84,0,1,1,28.37,2.5l-1-.63a14.64,14.64,0,1,0-26.54-3.07l.15.47,4.29-4.29,0-.3c0-.11,0-.21,0-.32a9.56,9.56,0,1,1,9.56,9.56h-.33l-.29,0L28,35.93l.47.15a14.64,14.64,0,0,0,15.39-4.26l.9.77a15.75,15.75,0,0,1-17.49,4.31l-.18-.07Zm8.17-10.13V23.61H24.45Zm1.19-.06h.3a8.37,8.37,0,1,0-8.37-8.38v.3H29.6v-.3a3.28,3.28,0,1,1,3.28,3.28h-.3Zm0-6.28h.3a2.1,2.1,0,1,0-2.1-2.1v.3h1.79Z"/></g></svg>