<svg xmlns="http://www.w3.org/2000/svg" viewBox="0 0 48.1 53.6"><defs><style>.cls-1{fill:#00a486;}</style></defs><title>Artboard 15</title><g id="Layer_2" data-name="Layer 2"><path class="cls-1" d="M24,53.6c-2.37,0-4.8-1.88-4.8-15.8,0-3.23,1.57-4.8,4.8-4.8s4.8,1.57,4.8,4.8C28.85,48.43,27.28,53.6,24,53.6Zm0-19.25c-2.48,0-3.45,1-3.45,3.45,0,5.92.45,10.1,1.33,12.42.64,1.69,1.29,2,2.12,2s1.43-.62,2-2.06c1-2.42,1.45-6.59,1.45-12.39C27.5,35.32,26.53,34.35,24,34.35Z"/><path class="cls-1" d="M32.78,35.53a9.44,9.44,0,0,0-.41-1.42,13.08,13.08,0,1,0-16.64,0,9.44,9.44,0,0,0-.41,1.42,14.42,14.42,0,1,1,17.45,0Z"/><path class="cls-1" d="M32.52,46.56c.07-.49.13-1,.18-1.53A22.7,22.7,0,1,0,1.35,24a22.58,22.58,0,0,0,14,21c0,.53.1,1,.16,1.52a24,24,0,1,1,17,0Z"/><path class="cls-1" d="M24,28.85a4.8,4.8,0,1,1,4.8-4.8A4.81,4.81,0,0,1,24,28.85Zm0-8.25A3.45,3.45,0,1,0,27.5,24,3.45,3.45,0,0,0,24,20.6Z"/></g></svg>