<svg id="Layer_2" data-name="Layer 2" xmlns="http://www.w3.org/2000/svg" viewBox="0 0 70 68.48"><defs><style>.cls-1{fill:#fff;}</style></defs><title>Artboard 22</title><path class="cls-1" d="M55.91.2H13.24A12.79,12.79,0,0,0,.45,13V55.67A12.8,12.8,0,0,0,13.24,68.48H55.91A12.8,12.8,0,0,0,68.73,55.67V13A12.8,12.8,0,0,0,55.91.2ZM51.58,26.69l0,1.08c0,11.11-8.46,23.92-23.92,23.92a23.63,23.63,0,0,1-12.88-3.79,15.29,15.29,0,0,0,2,.13,16.88,16.88,0,0,0,10.44-3.61,8.42,8.42,0,0,1-7.85-5.84,7.79,7.79,0,0,0,1.58.15,8.49,8.49,0,0,0,2.21-.29,8.41,8.41,0,0,1-6.73-8.23V30.1a8.28,8.28,0,0,0,3.79,1,8.39,8.39,0,0,1-3.73-7,8.29,8.29,0,0,1,1.15-4.23A23.83,23.83,0,0,0,35,28.71a8.05,8.05,0,0,1-.21-1.92A8.41,8.41,0,0,1,49.31,21a16.94,16.94,0,0,0,5.33-2,8.36,8.36,0,0,1-3.71,4.65,16.93,16.93,0,0,0,4.83-1.33,17.3,17.3,0,0,1-4.19,4.36Zm0,0"/></svg>