<svg xmlns="http://www.w3.org/2000/svg" viewBox="0 0 66.43 50"><defs><style>.cls-1{fill:#00a486;}</style></defs><title>Artboard 14</title><g id="Layer_2" data-name="Layer 2"><path class="cls-1" d="M36.8,19.74a9.59,9.59,0,0,0,6.54-2.57.43.43,0,0,0,.35.12.7.7,0,0,0,.47-.12.44.44,0,0,0,0-.7A9.88,9.88,0,0,0,36.8,0a9.59,9.59,0,0,0-6.54,2.57.74.74,0,0,0-.7,0,.44.44,0,0,0,0,.7A9.21,9.21,0,0,0,27.1,10L7.71,31.54a.7.7,0,0,0-.12.47,6,6,0,0,0,.7,1.87L6.66,35.75a.7.7,0,0,0-.12.47,3.46,3.46,0,0,0,.93,1.87,6.24,6.24,0,0,0-2,2.92c-.7,1.75-1.52,3.39-5,4.09a.64.64,0,0,0-.47.7c0,.23.35.47.58.47H.7c4.09-.82,5-3,5.84-4.79A4.77,4.77,0,0,1,8.29,39a3.46,3.46,0,0,0,1.87.93h0c.12,0,.23-.12.35-.12l1.75-1.64a4.59,4.59,0,0,0,2.1.7h.12c.12,0,.23-.12.35-.12l21-18.93A2.28,2.28,0,0,1,36.8,19.74ZM43,3.74a8.75,8.75,0,0,1,2.57,6.19,9.32,9.32,0,0,1-2.1,5.72L31.07,3.39a8.67,8.67,0,0,1,5.72-2.1A8.19,8.19,0,0,1,43,3.74Zm-12.73.47L42.52,16.47a8.67,8.67,0,0,1-5.72,2.1,4,4,0,0,1-1.17-.12,9.28,9.28,0,0,1-2.57-.7c-.12,0-.12-.12-.23-.12-.35-.23-.7-.35-1.05-.58-.12,0-.12-.12-.23-.12a6.68,6.68,0,0,1-.93-.82c-.23-.23-.35-.47-.58-.58l-.23-.23a1.61,1.61,0,0,1-.35-.47c-.12-.12-.12-.23-.23-.23a.61.61,0,0,1-.23-.47c0-.12-.12-.23-.12-.35s-.12-.35-.23-.47a.41.41,0,0,0-.12-.23.7.7,0,0,1-.12-.47c0-.12,0-.23-.12-.23,0-.23-.12-.35-.12-.58v-.23c0-.23-.12-.35-.12-.58v-.23A8.79,8.79,0,0,1,30.26,4.21Zm-19,33.18L9.93,38.55a3.53,3.53,0,0,1-1.29-.82,2.78,2.78,0,0,1-.93-1.52l1.17-1.4.12.12a2.05,2.05,0,0,0,.47.58c.23.23.47.58.7.82a4.46,4.46,0,0,0,1.05,1.05ZM34.35,19.51,14.14,37.62a3.15,3.15,0,0,1-1.64-.7h0c-.23-.12-.47-.35-.7-.47l-.12-.12c-.23-.23-.47-.35-.7-.58a6.68,6.68,0,0,1-.82-.93L10,34.7c-.23-.35-.47-.58-.7-.93h0a5.56,5.56,0,0,1-.7-1.64L27,11.68v.12c.12.35.23.82.35,1.17,0,.12.12.23.12.35.12.35.35.82.47,1.17h0a10.27,10.27,0,0,1,.7,1.17c.12.12.12.23.23.23.23.35.58.7.82,1.05a6.68,6.68,0,0,0,.93.82c.12.12.23.12.23.23a2.44,2.44,0,0,0,.7.47.41.41,0,0,1,.23.12,4.15,4.15,0,0,0,1.05.47h.12l1.05.35C34.23,19.39,34.35,19.39,34.35,19.51Z"/><path class="cls-1" d="M66.24,6.66c-1.05-1.52-3.74-5.14-6.66-5.14-.7,0-1.52,0-1.52,1.29v9.81c-.12,0-.23-.12-.47-.23a5.58,5.58,0,0,0-3.15-.93c-2.69,0-4.79,1.75-4.79,3.86S51.87,19,54.56,19s4.79-1.75,4.79-3.74h0V7s.12-.12.7-.12a24,24,0,0,1,3.62.82,7.22,7.22,0,0,0,1.87.47h0a1,1,0,0,0,.82-.47A1.1,1.1,0,0,0,66.24,6.66ZM54.56,17.87c-2,0-3.62-1.17-3.62-2.69s1.64-2.69,3.62-2.69a4.32,4.32,0,0,1,2.45.7h0a2,2,0,0,0,1.17.35v1.52C58.18,16.71,56.54,17.87,54.56,17.87ZM64,6.54a23.34,23.34,0,0,0-3.86-.93h-.82V2.69h.35c2.1,0,4.32,2.8,5.37,4.21Z"/><path class="cls-1" d="M53.39,28.74,41.12,23.48a1.61,1.61,0,0,0-1.29.12,1.44,1.44,0,0,0-.58,1.17V37.38c-.12,0-.23-.12-.47-.23h0a5.58,5.58,0,0,0-3.15-.93c-2.69,0-4.79,1.75-4.79,3.86s2.1,3.86,4.79,3.86,4.79-1.75,4.79-3.74h0V28.62a.36.36,0,0,1,.23.12L52.1,33.64A2,2,0,0,1,53,34.7v8.76c-.12,0-.23-.12-.47-.23h0a5.58,5.58,0,0,0-3.15-.93c-2.69,0-4.79,1.75-4.79,3.86S46.73,50,49.42,50s4.79-2,4.79-4.09V30A1.26,1.26,0,0,0,53.39,28.74ZM39.25,40.07c0,1.4-1.64,2.69-3.62,2.69S32,41.47,32,40.07s1.64-2.69,3.62-2.69a4.32,4.32,0,0,1,2.45.7l.12.12a2,2,0,0,0,1.17.35v1.52ZM53,45.91c0,1.4-1.64,2.69-3.62,2.69s-3.62-1.17-3.62-2.69,1.64-2.69,3.62-2.69a4.32,4.32,0,0,1,2.45.7L52,44a2,2,0,0,0,1.17.35v1.52Zm-.47-13.55L41.12,27.45a1.48,1.48,0,0,0-.7-.12V24.77c0-.12,0-.12.12-.12h.12l12.27,5.26A.11.11,0,0,1,53,30v2.69C52.92,32.59,52.69,32.48,52.57,32.36Z"/></g></svg>