<svg id="Layer_2" data-name="Layer 2" xmlns="http://www.w3.org/2000/svg" viewBox="0 0 56.79 47.66"><defs><style>.cls-1{fill:#fff;}</style></defs><title>Artboard 27</title><path class="cls-1" d="M56.79,19.78v0l0-.07V19.6l0,0,0,0,0,0,0,0h0l0,0L48.9,15h0L37.73,8.54l0,0L26.52,2.09,23,.05l0,0-.08,0a.36.36,0,0,0-.17,0l-.09,0,0,0-3.53,2h0L7.91,8.52h0L.19,13l0,0,0,0,0,0h0l0,0h0l0,0a.24.24,0,0,0,0,.07v0a.29.29,0,0,0,0,0,.14.14,0,0,0,0,0V27.87a.1.1,0,0,0,0,0A.38.38,0,0,0,0,28a.32.32,0,0,0,0,.07l0,.07.06.05,0,0L33.79,47.6h0a.41.41,0,0,0,.18,0,.4.4,0,0,0,.18,0h0L56.58,34.7l0,0,.06-.06,0-.07,0-.07a.39.39,0,0,0,0-.08.29.29,0,0,0,0-.06Zm-.23-.2Zm-.62,1V34.09L34.43,46.49V33ZM6.26,10.83v0a.23.23,0,0,0,0,0v2.44a.1.1,0,0,0,0,0,.34.34,0,0,0,0,.05l.17.74a.45.45,0,0,0,.06.13h0L7,15l0,0,0,.05.77.59,0,0,.05,0L9,16.22l0,0,1.17.27h.08l1.26.09h.07l1.3-.09h0l1.2-.27h.08l1-.46.05,0,0,0,.79-.6,0,0,0,0,.49-.68h0a.43.43,0,0,0,.06-.14l.17-.73a.09.09,0,0,0,0,0,.26.26,0,0,0,0-.05V10.91a.15.15,0,0,0,0,0v-.06l-.17-.74a.42.42,0,0,0,0-.09l0,0,0,0-.47-.68,0,0,0,0-.79-.59,0,0,0,0-1-.43H14.2L13,7.74h-.05l-1.3-.09h0l-.5,0L17.54,4l-.1.42v0a.22.22,0,0,0,0,0V6.88a.08.08,0,0,0,0,0,.34.34,0,0,0,0,.05l.17.74a.36.36,0,0,0,.05.12l0,0,.48.68,0,0,.05.06.79.59,0,0,0,0,1,.47h0l0,0,1.21.28h.06l1.28.09h.07l1.29-.1h0l1.17-.27h.09l1-.47,0,0,0,0,.79-.59,0-.05,0,0,.49-.68h0A.43.43,0,0,0,28,7.72L28.17,7a.08.08,0,0,0,0,0,.34.34,0,0,0,0-.05V4.47a.15.15,0,0,0,0,0v0a.15.15,0,0,0,0,0L28.07,4l6.46,3.72-.49,0H34l-1.28.09h-.08l-1.2.3h-.06l-1,.43,0,0,0,0-.78.59-.06.05,0,0-.49.69h0l0,.08a.31.31,0,0,0,0,.06l-.14.72a.13.13,0,0,0,0,0h0a.28.28,0,0,0,0,0v2.44a.11.11,0,0,0,0,0,.25.25,0,0,0,0,0l.14.71a.12.12,0,0,0,0,0v0a.26.26,0,0,0,0,.08l0,0,.49.69,0,0,0,0,.78.6,0,0,.05,0,1.06.46,0,0,1.21.28h.07l1.31.09h0l1.29-.1h0l1.21-.29h0l1-.46.06,0,0,0,.79-.61,0,0,0,0,.49-.68a.39.39,0,0,0,.05-.11v0l.18-.74a.11.11,0,0,0,0,0h0a.29.29,0,0,0,0-.06V10.91a.11.11,0,0,0,0,0,.29.29,0,0,0,0,0,.16.16,0,0,0,0,0l-.1-.4,6.45,3.73-.48,0h-.07l-1.31.1h0l-1.2.3h-.08l-1,.45,0,0,0,0-.79.58,0,0,0,0-.5.69a.45.45,0,0,0-.07.16l-.17.72a.1.1,0,0,0,0,0h0a.27.27,0,0,0,0,0v2.44a.09.09,0,0,0,0,0,.34.34,0,0,0,0,.05l.17.74a.43.43,0,0,0,.05.12l0,0,.5.7,0,0,0,.05.8.6h0l.05,0,1,.44,0,0,1.21.3h.07l1.28.09h.07l1.29-.1h.05l1.18-.3h.06l1-.43.05,0,0,0,.79-.59,0-.05,0,0,.5-.69h0a.42.42,0,0,0,.06-.14l.17-.73a.09.09,0,0,0,0,0,.26.26,0,0,0,0-.05V17.37a.15.15,0,0,0,0,0v0a.15.15,0,0,0,0,0l-.09-.39,5.07,2.93L34,32.22,1.27,13.35,6.36,10.4l-.09.41v0ZM7.1,12.7l.75.59,0,0,.06,0L9,13.79l0,0,1.18.29h.07l1.27.11h.07l1.3-.11h0l1.23-.3h0l1-.45.06,0,0,0,.76-.59v.59L16,13.9l-.4.56-.7.53-.94.42-1.13.26-1.22.09-1.21-.08L9.3,15.42l-1-.42-.71-.54-.4-.56-.14-.59Zm5.71-4.12L14,8.86l.95.39.7.53.4.57.13.56-.13.56-.4.58-.69.54L14,13l-1.14.27-1.21.1-1.21-.1L9.3,13l-1-.41L7.64,12l-.4-.58-.13-.56.13-.56.4-.57.68-.51,1-.4,1.11-.29,1.22-.09Zm5.47-2.31.76.57,0,0,.05,0,1,.43,0,0,1.21.3h.07l1.31.09h0l1.29-.1h.05l1.18-.3h.06l1-.43.05,0,0,0,.76-.57v.56l-.14.62-.4.56-.7.52L25.15,9,24,9.21l-1.21.09-1.22-.08L20.48,9l-1-.43L18.82,8l-.4-.56-.14-.59ZM27.19,5l-.4.57-.68.51-1,.4L24,6.8l-1.21.09-1.22-.08-1.14-.28-.95-.39-.7-.53L18.42,5l-.13-.56.13-.56.4-.57.68-.52,1-.43,1.13-.28L22.83,2,24,2.11l1.11.28,1,.42.71.53.4.57.13.56Zm1.74,5h0ZM37.28,15l-.94.42-1.11.26L34,15.76l-1.22-.08-1.13-.26-1-.42L30,14.46l-.4-.56-.12-.59v-.6l.73.57,0,0,.05,0,1,.44h.07l1.21.29h.07l1.28.1H34l1.3-.11h0l1.19-.29h.06l1-.45.06,0,0,0,.77-.6v.59l-.16.62-.4.56Zm1.1-3.53L38,12l-.69.54-.94.41-1.11.27-1.2.1-1.22-.1L31.66,13l-1-.41L30,12l-.4-.57-.11-.56.11-.56.4-.57.69-.52.95-.4,1.14-.29L34,8.49l1.2.08,1.12.28,1,.39.7.53.4.57.14.56Zm2.32,4.28h0Zm7.76,5.71-.95.4-1.11.29-1.21.09L44,22.14l-1.14-.28-.92-.39-.71-.53-.41-.57-.14-.59v-.63l.76.57,0,0,0,0,1,.47h0l0,0,1.21.26h.06l1.28.1h.08l1.26-.11h.07l1.17-.26h.09l1-.47,0,0,0,0,.78-.58v.6l-.14.62-.41.57Zm1.1-3.52-.41.56-.69.52-1,.44-1.12.25-1.2.1L44,19.7l-1.12-.24L41.93,19l-.71-.53-.41-.56-.13-.57.13-.56.41-.57.7-.51.91-.41L44,15,45.18,15l1.2.08,1.11.28,1,.41.71.52.41.57.13.56ZM39.25,10.88Zm-17-9.65.54-.31.53.31-.51,0h0ZM33.58,33V46.49L.85,27.62V14.08Z"/><path class="cls-1" d="M17.44,19.87v0l.17.73a.41.41,0,0,0,.06.13v0l.48.69,0,0,.05.05.78.58,0,0,.05,0,1,.44h.06l1.2.3h.08l1.28.09h.07l1.29-.1h.05l1.18-.3h.06l1-.43.06,0,0,0,.79-.59.05-.06,0,0,.49-.71h0a.4.4,0,0,0,.05-.13l.17-.73a.08.08,0,0,0,0,0,.25.25,0,0,0,0-.05V17.37a.12.12,0,0,0,0,0v0a.19.19,0,0,0,0,0L28,16.54a.38.38,0,0,0,0-.09v0l0,0-.48-.69,0,0,0,0L26.56,15l0,0,0,0-1-.44,0,0h0l-1.17-.3h-.08l-1.28-.09h-.05l-1.28.09h-.08l-1.21.3h-.06l-1,.44,0,0,0,0-.79.58,0,.05,0,0-.48.69h0l0,.07a.27.27,0,0,0,0,.07l-.17.73a.33.33,0,0,0,0,0,.24.24,0,0,0,0,.05v2.44a.23.23,0,0,0,0,0Zm1.71-.23h0Zm-.87-.49.76.57,0,0,0,0,1,.47h0l0,0,1.21.26h.06l1.28.1h.08l1.26-.11h.07l1.17-.26h.09l1-.47,0,0,0,0,.76-.57v.59l-.14.62-.4.57-.69.52-.95.4L24,22.14l-1.21.09-1.22-.08-1.14-.28-.95-.39-.7-.53-.4-.57-.14-.59Zm8.91-1.22-.4.56-.69.52-1,.44L24,19.7l-1.21.1-1.22-.1-1.13-.24-1-.43-.71-.53-.4-.56-.13-.57.13-.56.4-.57.69-.51.95-.41L21.6,15,22.82,15,24,15l1.11.28,1,.41.7.52.4.57.13.56Zm-9.44-1.42h0Z"/><path class="cls-1" d="M28.65,26.31h0l.14.74a.15.15,0,0,0,0,0v0a.42.42,0,0,0,0,.1v0l.49.7,0,0,.05.06.79.59,0,0,.05,0,1.06.45,0,0,1.21.29h.07l1.28.11H34l1.26-.11h.08l1.2-.3h0l1-.45,0,0,0,0,.79-.59.05-.06,0,0,.47-.68,0,0a.4.4,0,0,0,.06-.13l.18-.75a.11.11,0,0,0,0-.05.26.26,0,0,0,0-.05V23.83a.11.11,0,0,0,0,0,.17.17,0,0,0,0,0,.15.15,0,0,0,0,0L39.18,23a.4.4,0,0,0,0-.09l0,0v0l-.48-.68,0-.05,0,0-.79-.59h0l0,0-1-.47h0l0,0-1.18-.27h-.07L34,20.57H34l-1.28.09h-.07l-1.2.27h-.09l-1,.47,0,0,0,0-.79.59,0,0,0,0-.49.69,0,.06.12,0-.13,0,0,0v0l-.14.71h0a.14.14,0,0,0,0,0h0a.29.29,0,0,0,0,.05v2.41a.1.1,0,0,0,0,0A.22.22,0,0,0,28.65,26.31Zm.84-.67.74.55,0,0,0,0,1,.44h.08l1.21.29h.07l1.28.1H34l1.3-.11h0l1.19-.29h.06l1-.45.05,0,0,0,.78-.58v.57l-.16.65-.4.57-.69.52-.94.41-1.11.27-1.2.1-1.22-.1-1.14-.27-1-.4L30,27.4l-.39-.57-.12-.62Zm8.88-1.24L38,25l-.68.51-1,.42-1.11.27-1.2.1-1.22-.1-1.14-.27-1-.41L30,25l-.39-.55-.11-.58.11-.56.39-.55.7-.52.94-.43,1.13-.26L34,21.41l1.21.08,1.11.26,1,.43.71.53.4.56.14.56Zm-8,4.15h0Zm8.13-6.36h0Z"/></svg>