<svg xmlns="http://www.w3.org/2000/svg" viewBox="0 0 39 39"><defs><style>.cls-1{fill:#fff;}</style></defs><title>Asset 4</title><g id="Layer_2" data-name="Layer 2"><g id="Layer_2-2" data-name="Layer 2"><path class="cls-1" d="M39,5.86V33.14a1.42,1.42,0,0,0-.07.2,6.3,6.3,0,0,1-.9,2.4A6.57,6.57,0,0,1,32.32,39c-2.13,0-4.26,0-6.38,0H25.6V24.26H32v-6.5H25.63c0-1-.06-2.06,0-3.07a1.37,1.37,0,0,1,1.53-1.27c1.49,0,3,0,4.48,0l.39,0V6.95l-.15,0c-1.71,0-3.43,0-5.14,0a6.3,6.3,0,0,0-3.63,1.2,8.23,8.23,0,0,0-3.49,5.76,30.74,30.74,0,0,0-.13,3.48c0,.12,0,.24,0,.39H14.75c0,.12,0,.21,0,.3,0,2,0,3.92,0,5.89,0,.27.1.32.35.32h4.42V39H19.1C15,39,10.94,39,6.86,39a6.55,6.55,0,0,1-4.58-1.7A6.38,6.38,0,0,1,0,32.41Q0,19.5,0,6.59A6.75,6.75,0,0,1,4.78.28C5.14.17,5.5.09,5.86,0H33.14l.23.07a6.76,6.76,0,0,1,5.43,5C38.88,5.33,38.94,5.6,39,5.86Z"/></g></g></svg>