<svg id="Layer_2" data-name="Layer 2" xmlns="http://www.w3.org/2000/svg" viewBox="0 0 85.58 55.54"><defs><style>.cls-1{fill:#fff;}</style></defs><title>Artboard 25</title><path class="cls-1" d="M77.08,0H8.5A8.51,8.51,0,0,0,0,8.5V47a8.51,8.51,0,0,0,8.5,8.5H77.08a8.51,8.51,0,0,0,8.5-8.5V8.5A8.51,8.51,0,0,0,77.08,0ZM58,25.8,82,6.1a5.47,5.47,0,0,1,.56,2.4V47a5.46,5.46,0,0,1-.51,2.29ZM77.08,3A5.45,5.45,0,0,1,80,3.86L42.79,34.35,5.56,3.86A5.46,5.46,0,0,1,8.5,3ZM3.51,49.33A5.46,5.46,0,0,1,3,47V8.5a5.45,5.45,0,0,1,.56-2.4L27.62,25.8Zm5,3.21a5.47,5.47,0,0,1-3-.92L30,27.72,42.79,38.22,55.62,27.72l24.5,23.91a5.47,5.47,0,0,1-3,.92Z"/></svg>