<svg xmlns="http://www.w3.org/2000/svg" viewBox="0 0 68.28 68.28"><defs><style>.cls-1{fill:#fff;}</style></defs><title>Artboard 23</title><g id="Layer_2" data-name="Layer 2"><g id="post-linkedin"><path class="cls-1" d="M61.45,0H6.83A6.85,6.85,0,0,0,0,6.83V61.45a6.85,6.85,0,0,0,6.83,6.83H61.45a6.85,6.85,0,0,0,6.83-6.83V6.83A6.85,6.85,0,0,0,61.45,0Zm-41,58H10.24V27.31H20.48ZM15.36,21.51a6.15,6.15,0,1,1,6.15-6.15A6.12,6.12,0,0,1,15.36,21.51ZM58,58H47.8V39.94a5.12,5.12,0,1,0-10.24,0V58H27.31V27.31H37.55v4.1a11,11,0,0,1,8.53-4.78A12.1,12.1,0,0,1,58,38.58Z"/></g></g></svg>