<?xml version="1.0" encoding="utf-8"?>
<!-- Generator: Adobe Illustrator 19.1.0, SVG Export Plug-In . SVG Version: 6.00 Build 0)  -->
<svg version="1.1" id="Layer_1" xmlns="http://www.w3.org/2000/svg" xmlns:xlink="http://www.w3.org/1999/xlink" x="0px" y="0px"
	 viewBox="0 0 503.2 195.5" style="enable-background:new 0 0 503.2 195.5;" xml:space="preserve">
<style type="text/css">
	.st0{fill:#8600ED;}
</style>
<path class="st0" d="M493.6,90c-1.5-13-7.1-24.3-16.7-34c-11.4-11.4-25.3-17.2-41.4-17.2c-16.2,0-30,5.7-41.4,17.2
	c-11.4,11.4-17.2,25.3-17.2,41.4s5.7,30,17.2,41.4c11.4,11.4,25.3,17.2,41.4,17.2c16.2,0,30-5.9,41.4-17.3
	c7.5-7.5,12.5-15.7,15.1-25.7h14V90H493.6z M460.3,122.3c-6.9,6.9-15.2,10.3-24.8,10.3c-9.7,0-18-3.4-24.9-10.3
	c-6.9-6.9-10.3-15.2-10.3-24.8c0-9.7,3.4-18,10.3-24.8c6.9-6.9,15.2-10.3,24.9-10.3c9.7,0,18,3.4,24.8,10.3
	c6.9,6.9,10.3,15.2,10.3,24.8C470.6,107.1,467.2,115.4,460.3,122.3z"/>
<path class="st0" d="M94,50.4c-10-7.7-21.9-11.6-35.3-11.6c-16.2,0-30,5.7-41.5,17.2C5.8,67.4,0,81.2,0,97.4V156h23V97.4
	c0-9.7,3.7-18,10.5-24.8c6.9-6.9,15.3-10.3,25-10.3c9.7,0,18.1,3.4,25,10.3C90.4,79.4,94,87.7,94,97.4V156h23V39H94V50.4z"/>
<rect x="94" y="4" class="st0" width="23" height="24"/>
<path class="st0" d="M279,97.4c0-9.7,3.3-18,10.1-24.8c6.9-6.9,15.1-10.3,24.8-10.3c9.7,0,17.9,3.4,24.8,10.3
	c6.9,6.9,10.3,15.2,10.3,24.8V156h23V39h-23v11.4c-10-7.7-21.8-11.6-35.2-11.6c-16.2,0-30.1,5.7-41.5,17.2
	C260.8,67.4,255,81.2,255,97.4V156h24V97.4z"/>
<rect x="349" y="4" class="st0" width="23" height="24"/>
<path class="st0" d="M192.1,38.8c-16.2,0-30,5.8-41.4,17.2c-9.6,9.6-15.2,21-16.7,34h-12v23h13.6c2.6,10,7.6,18.2,15.1,25.7
	c11.4,11.4,25.3,17.3,41.4,17.3c16.2,0,30-5.7,41.4-17.1c11.4-11.4,17.2-25.2,17.2-41.4c0-16.2-5.7-30-17.2-41.4
	C222.1,44.5,208.3,38.8,192.1,38.8z M217,122.3c-6.9,6.9-15.2,10.3-24.8,10.3c-9.7,0-18-3.4-24.9-10.3c-6.9-6.9-10.3-15.2-10.3-24.8
	c0-9.7,3.4-18,10.3-24.8c6.9-6.9,15.2-10.3,24.9-10.3c9.7,0,18,3.4,24.8,10.3c6.9,6.9,10.3,15.2,10.3,24.8
	C227.3,107.1,223.8,115.4,217,122.3z"/>
<path class="st0" d="M255,167v7h34v19h23.7h4.8H341v-19h32v-7H255z M313,189h-19v-15h19V189z M336,189h-18v-15h18V189z"/>
</svg>
