<svg id="Layer_1" data-name="Layer 1" xmlns="http://www.w3.org/2000/svg" viewBox="0 0 142.68 62.75"><defs><style>.cls-1{fill:#fff;}</style></defs><title>Artboard 2</title><path class="cls-1" d="M32.37,20.43A7.19,7.19,0,0,0,34,25a5.06,5.06,0,0,0,4,1.69,5.57,5.57,0,0,0,2.89-.74,3.36,3.36,0,0,0,1.61-2.07h6.86a11.05,11.05,0,0,1-4.09,6,11.6,11.6,0,0,1-7,2.1q-12.59,0-12.59-13.72A16,16,0,0,1,26.54,13a11.37,11.37,0,0,1,2.38-4,10.29,10.29,0,0,1,3.81-2.58,13.93,13.93,0,0,1,5.17-.9q5.84,0,8.83,3.74t3,11.26Zm10.49-4.2a7,7,0,0,0-.49-2.43,5.11,5.11,0,0,0-1.15-1.74,4.59,4.59,0,0,0-1.64-1,5.54,5.54,0,0,0-1.89-.33,4.72,4.72,0,0,0-3.46,1.46,6.22,6.22,0,0,0-1.66,4.07Z"/><path class="cls-1" d="M73.1,41.23a3.64,3.64,0,0,0,3.32-2.07A10.23,10.23,0,0,0,75.26,27.9a11.57,11.57,0,0,1-9.2,3.83q-5.85,0-9.31-2A6.68,6.68,0,0,1,53.3,23.5a6.94,6.94,0,0,1,1.58-4.75,9.76,9.76,0,0,1,5.32-2.64q-3.87-3.52-3.87-7.68a7.29,7.29,0,0,1,2.93-6.29A12,12,0,0,1,66.55,0q4.36,0,6.53,1.58a5,5,0,0,1,2.18,4.27q0,4.66-7.08,7.13.88.57,3.21,2a50.49,50.49,0,0,1,6.91,5.1A35.56,35.56,0,0,0,79,13.68H75.57V12.8h7.66v.88H80.14a37.39,37.39,0,0,1-.84,7.44,18.82,18.82,0,0,1,2.86,4,10.9,10.9,0,0,1,1,4.88,12.4,12.4,0,0,1-3.34,8.49,10,10,0,0,1-7.61,3.74,7.28,7.28,0,0,1-4.44-1.19,3.64,3.64,0,0,1-1.58-3,3.89,3.89,0,0,1,1-2.88,3.54,3.54,0,0,1,2.62-1q3.52,0,3.52,3.17a5.92,5.92,0,0,1-.26,1.58H71.52Q70.73,41.23,73.1,41.23Zm-6-10.65A8.78,8.78,0,0,0,74.51,27a35.29,35.29,0,0,0-5.68-4.58,93.7,93.7,0,0,1-8-5.63q-.66,1.41-.66,5.72t1.72,6.2A6.72,6.72,0,0,0,67.12,30.58ZM63.47,2a4.13,4.13,0,0,0-1.19,3.28,6.12,6.12,0,0,0,1.06,3.7,17.41,17.41,0,0,0,4,3.52,4.38,4.38,0,0,0,2.31-2.33,13.21,13.21,0,0,0,.46-4q0-5.19-3.83-5.19A4.21,4.21,0,0,0,63.47,2Z"/><path class="cls-1" d="M94,20.43A7.19,7.19,0,0,0,95.7,25a5.06,5.06,0,0,0,4,1.69,5.57,5.57,0,0,0,2.89-.74,3.36,3.36,0,0,0,1.61-2.07H111a11.05,11.05,0,0,1-4.09,6,11.6,11.6,0,0,1-7,2.1q-12.59,0-12.59-13.72A16,16,0,0,1,88.2,13a11.37,11.37,0,0,1,2.38-4,10.29,10.29,0,0,1,3.81-2.58,13.93,13.93,0,0,1,5.17-.9q5.84,0,8.83,3.74t3,11.26Zm10.49-4.2A7,7,0,0,0,104,13.8a5.11,5.11,0,0,0-1.15-1.74,4.59,4.59,0,0,0-1.64-1,5.54,5.54,0,0,0-1.89-.33,4.72,4.72,0,0,0-3.46,1.46,6.22,6.22,0,0,0-1.66,4.07Z"/><path class="cls-1" d="M4.29,62.75a4.19,4.19,0,0,1-1.71-.34,3.9,3.9,0,0,1-1.36-1,4.63,4.63,0,0,1-.9-1.61A6.68,6.68,0,0,1,0,57.65a6.44,6.44,0,0,1,.33-2.13,4.75,4.75,0,0,1,.92-1.61,4,4,0,0,1,1.38-1,4.26,4.26,0,0,1,1.74-.35,3.29,3.29,0,0,1,1.58.37,4.14,4.14,0,0,1,1.12.85l-.68.81a3.22,3.22,0,0,0-.88-.67,2.42,2.42,0,0,0-1.12-.25,2.88,2.88,0,0,0-1.28.28,2.77,2.77,0,0,0-1,.79A3.71,3.71,0,0,0,1.51,56a5.8,5.8,0,0,0-.22,1.65,6,6,0,0,0,.22,1.67,4,4,0,0,0,.61,1.27,2.69,2.69,0,0,0,1,.81,2.76,2.76,0,0,0,1.27.29,2.61,2.61,0,0,0,1.26-.29,3.93,3.93,0,0,0,1-.82l.69.78a4.37,4.37,0,0,1-1.32,1A3.68,3.68,0,0,1,4.29,62.75Z"/><path class="cls-1" d="M11.85,62.75a3.28,3.28,0,0,1-1.28-.25,3.15,3.15,0,0,1-1.07-.74,3.61,3.61,0,0,1-.74-1.2,4.41,4.41,0,0,1-.28-1.61,4.46,4.46,0,0,1,.28-1.63,3.71,3.71,0,0,1,.74-1.21,3.11,3.11,0,0,1,1.07-.75,3.35,3.35,0,0,1,2.56,0,3.11,3.11,0,0,1,1.07.75,3.71,3.71,0,0,1,.74,1.21,4.46,4.46,0,0,1,.28,1.63,4.41,4.41,0,0,1-.28,1.61,3.61,3.61,0,0,1-.74,1.2,3.16,3.16,0,0,1-1.07.74A3.28,3.28,0,0,1,11.85,62.75Zm0-1a1.82,1.82,0,0,0,.85-.2,2,2,0,0,0,.67-.57,2.72,2.72,0,0,0,.43-.88A4,4,0,0,0,14,58.94a4.13,4.13,0,0,0-.15-1.15,2.8,2.8,0,0,0-.43-.89,1.93,1.93,0,0,0-.67-.58,1.9,1.9,0,0,0-1.71,0,1.93,1.93,0,0,0-.67.58,2.79,2.79,0,0,0-.43.89,4.11,4.11,0,0,0-.15,1.15,4,4,0,0,0,.15,1.14,2.71,2.71,0,0,0,.43.88,2,2,0,0,0,.67.57A1.82,1.82,0,0,0,11.85,61.73Z"/><path class="cls-1" d="M17.15,55.28h1l.1,1h0a5,5,0,0,1,1-.88,2.26,2.26,0,0,1,1.22-.35,2.09,2.09,0,0,1,1.31.37,2.13,2.13,0,0,1,.7,1,6.19,6.19,0,0,1,1.15-1A2.23,2.23,0,0,1,25,55.1a2,2,0,0,1,1.67.72A3.49,3.49,0,0,1,27.21,58v4.62H26V58.12a2.6,2.6,0,0,0-.33-1.49,1.17,1.17,0,0,0-1-.46,2.71,2.71,0,0,0-1.83,1.13v5.28H21.57V58.12a2.61,2.61,0,0,0-.33-1.49,1.19,1.19,0,0,0-1-.46,2.7,2.7,0,0,0-1.83,1.13v5.28H17.15Z"/><path class="cls-1" d="M31.71,62.75A2,2,0,0,1,30,62a3.55,3.55,0,0,1-.53-2.13V55.28h1.25v4.46A2.65,2.65,0,0,0,31,61.23a1.18,1.18,0,0,0,1,.46,1.76,1.76,0,0,0,1-.29,4.71,4.71,0,0,0,1-.94V55.28h1.23v7.29h-1l-.1-1.14h0a4.88,4.88,0,0,1-1.07,1A2.41,2.41,0,0,1,31.71,62.75Z"/><path class="cls-1" d="M37.74,55.28h1l.1,1h0a5.92,5.92,0,0,1,1.1-.88,2.52,2.52,0,0,1,1.34-.35,2,2,0,0,1,1.69.72A3.56,3.56,0,0,1,43.57,58v4.62H42.34V58.12A2.61,2.61,0,0,0,42,56.63a1.21,1.21,0,0,0-1-.46,1.79,1.79,0,0,0-1,.29,6.57,6.57,0,0,0-1,.84v5.28H37.74Z"/><path class="cls-1" d="M46.57,53.78a.87.87,0,0,1-.61-.22.74.74,0,0,1-.25-.57.73.73,0,0,1,.25-.58,1,1,0,0,1,1.21,0,.73.73,0,0,1,.25.58.74.74,0,0,1-.25.57A.87.87,0,0,1,46.57,53.78Zm-.63,1.5h1.23v7.29H45.94Z"/><path class="cls-1" d="M52.51,62.75a3.57,3.57,0,0,1-1.35-.25,3,3,0,0,1-1.09-.74,3.48,3.48,0,0,1-.72-1.2,4.63,4.63,0,0,1-.26-1.61,4.36,4.36,0,0,1,.29-1.63,3.66,3.66,0,0,1,.77-1.21,3.18,3.18,0,0,1,1.12-.75,3.58,3.58,0,0,1,1.34-.25,2.73,2.73,0,0,1,1.23.25,4.18,4.18,0,0,1,.9.6l-.63.81a3,3,0,0,0-.67-.46,1.71,1.71,0,0,0-.79-.18A2.05,2.05,0,0,0,51,56.9a2.86,2.86,0,0,0-.47.89,3.61,3.61,0,0,0-.17,1.15,3.69,3.69,0,0,0,.17,1.14A2.76,2.76,0,0,0,51,61a2,2,0,0,0,.71.57,2.07,2.07,0,0,0,.92.2,2,2,0,0,0,.94-.22,3.76,3.76,0,0,0,.77-.52l.54.83a3.91,3.91,0,0,1-1.09.68A3.27,3.27,0,0,1,52.51,62.75Z"/><path class="cls-1" d="M58,62.75a2.2,2.2,0,0,1-1.52-.54,1.94,1.94,0,0,1-.61-1.53,2,2,0,0,1,1.07-1.84,8.79,8.79,0,0,1,3.4-.89,3.37,3.37,0,0,0-.07-.67,1.69,1.69,0,0,0-.23-.58,1.23,1.23,0,0,0-.46-.41,1.56,1.56,0,0,0-.74-.16,3,3,0,0,0-1.19.24,5.75,5.75,0,0,0-1,.54L56.19,56a8,8,0,0,1,1.24-.64,4.16,4.16,0,0,1,1.62-.31,2.24,2.24,0,0,1,1.94.82,3.61,3.61,0,0,1,.6,2.18v4.47h-1l-.1-.87h0a6.16,6.16,0,0,1-1.12.74A2.79,2.79,0,0,1,58,62.75Zm.36-1a2.08,2.08,0,0,0,1-.25,5,5,0,0,0,1-.73v-2a12.6,12.6,0,0,0-1.54.28,4,4,0,0,0-1,.39,1.51,1.51,0,0,0-.56.52,1.23,1.23,0,0,0-.17.64,1,1,0,0,0,.38.9A1.53,1.53,0,0,0,58.36,61.76Z"/><path class="cls-1" d="M66.76,62.75a3.57,3.57,0,0,1-1.35-.25,3,3,0,0,1-1.09-.74,3.48,3.48,0,0,1-.72-1.2,4.63,4.63,0,0,1-.26-1.61,4.36,4.36,0,0,1,.29-1.63,3.66,3.66,0,0,1,.77-1.21,3.18,3.18,0,0,1,1.12-.75,3.58,3.58,0,0,1,1.34-.25,2.73,2.73,0,0,1,1.23.25,4.18,4.18,0,0,1,.9.6l-.63.81a3,3,0,0,0-.67-.46,1.71,1.71,0,0,0-.79-.18,2.05,2.05,0,0,0-1.64.78,2.86,2.86,0,0,0-.47.89,3.61,3.61,0,0,0-.17,1.15,3.69,3.69,0,0,0,.17,1.14,2.76,2.76,0,0,0,.46.88,2,2,0,0,0,.71.57,2.07,2.07,0,0,0,.92.2,2,2,0,0,0,.94-.22,3.76,3.76,0,0,0,.77-.52l.54.83a3.91,3.91,0,0,1-1.09.68A3.27,3.27,0,0,1,66.76,62.75Z"/><path class="cls-1" d="M71.35,53.78a.87.87,0,0,1-.61-.22A.74.74,0,0,1,70.5,53a.73.73,0,0,1,.25-.58,1,1,0,0,1,1.21,0,.73.73,0,0,1,.25.58.74.74,0,0,1-.25.57A.87.87,0,0,1,71.35,53.78Zm-.63,1.5H72v7.29H70.72Z"/><path class="cls-1" d="M77.25,62.75A3.28,3.28,0,0,1,76,62.5a3.15,3.15,0,0,1-1.07-.74,3.61,3.61,0,0,1-.74-1.2,4.41,4.41,0,0,1-.28-1.61,4.46,4.46,0,0,1,.28-1.63,3.71,3.71,0,0,1,.74-1.21A3.11,3.11,0,0,1,76,55.36a3.35,3.35,0,0,1,2.56,0,3.11,3.11,0,0,1,1.07.75,3.71,3.71,0,0,1,.74,1.21,4.46,4.46,0,0,1,.28,1.63,4.41,4.41,0,0,1-.28,1.61,3.61,3.61,0,0,1-.74,1.2,3.16,3.16,0,0,1-1.07.74A3.28,3.28,0,0,1,77.25,62.75Zm0-1a1.82,1.82,0,0,0,.85-.2,2,2,0,0,0,.67-.57,2.72,2.72,0,0,0,.43-.88,4,4,0,0,0,.15-1.14,4.13,4.13,0,0,0-.15-1.15,2.8,2.8,0,0,0-.43-.89,1.93,1.93,0,0,0-.67-.58,1.9,1.9,0,0,0-1.71,0,1.93,1.93,0,0,0-.67.58,2.79,2.79,0,0,0-.43.89,4.11,4.11,0,0,0-.15,1.15,4,4,0,0,0,.15,1.14,2.71,2.71,0,0,0,.43.88,2,2,0,0,0,.67.57A1.82,1.82,0,0,0,77.25,61.73Zm-.84-8.37,2.11-2.5.87.83L77,54Z"/><path class="cls-1" d="M82.54,55.28h1l.1,1h0a5.92,5.92,0,0,1,1.1-.88,2.52,2.52,0,0,1,1.34-.35,2,2,0,0,1,1.69.72A3.56,3.56,0,0,1,88.38,58v4.62H87.15V58.12a2.61,2.61,0,0,0-.33-1.49,1.21,1.21,0,0,0-1-.46,1.79,1.79,0,0,0-1,.29,6.57,6.57,0,0,0-1,.84v5.28H82.54Z"/><path class="cls-1" d="M97.59,62.75a4.19,4.19,0,0,1-1.71-.34,3.9,3.9,0,0,1-1.36-1,4.63,4.63,0,0,1-.9-1.61,6.68,6.68,0,0,1-.32-2.15,6.44,6.44,0,0,1,.33-2.13,4.75,4.75,0,0,1,.92-1.61,4,4,0,0,1,1.38-1,4.26,4.26,0,0,1,1.74-.35,3.29,3.29,0,0,1,1.58.37,4.14,4.14,0,0,1,1.12.85l-.68.81a3.22,3.22,0,0,0-.88-.67,2.42,2.42,0,0,0-1.12-.25,2.88,2.88,0,0,0-1.28.28,2.77,2.77,0,0,0-1,.79A3.71,3.71,0,0,0,94.81,56a5.8,5.8,0,0,0-.22,1.65,6,6,0,0,0,.22,1.67,4,4,0,0,0,.61,1.27,2.69,2.69,0,0,0,1,.81,2.76,2.76,0,0,0,1.27.29,2.61,2.61,0,0,0,1.26-.29,3.93,3.93,0,0,0,1-.82l.69.78a4.37,4.37,0,0,1-1.32,1A3.68,3.68,0,0,1,97.59,62.75Z"/><path class="cls-1" d="M102.31,55.28h1l.1,1.32h0a3.38,3.38,0,0,1,.91-1.1,1.88,1.88,0,0,1,1.16-.4,1.94,1.94,0,0,1,.78.15l-.24,1.08-.33-.09a2,2,0,0,0-.37,0,1.64,1.64,0,0,0-1,.38,3,3,0,0,0-.88,1.31v4.68h-1.23Z"/><path class="cls-1" d="M110.32,62.75a3.57,3.57,0,0,1-1.37-.26,3.27,3.27,0,0,1-1.11-.75,3.48,3.48,0,0,1-.74-1.19,4.46,4.46,0,0,1-.27-1.6,4.41,4.41,0,0,1,.28-1.61,3.77,3.77,0,0,1,.74-1.21,3.18,3.18,0,0,1,1-.76,2.92,2.92,0,0,1,1.21-.26,3.06,3.06,0,0,1,1.24.24,2.42,2.42,0,0,1,.92.69,3.16,3.16,0,0,1,.56,1.08,4.76,4.76,0,0,1,.2,1.41c0,.13,0,.26,0,.38a1.88,1.88,0,0,1,0,.32H108a2.85,2.85,0,0,0,.73,1.85,2.25,2.25,0,0,0,1.7.68,2.86,2.86,0,0,0,1-.16,4.27,4.27,0,0,0,.85-.41l.44.81a6.23,6.23,0,0,1-1.06.53A3.69,3.69,0,0,1,110.32,62.75Zm1.6-4.41a2.61,2.61,0,0,0-.47-1.69,1.62,1.62,0,0,0-1.33-.58,1.87,1.87,0,0,0-.74.15,1.94,1.94,0,0,0-.64.44,2.43,2.43,0,0,0-.47.71,3.2,3.2,0,0,0-.25,1Z"/><path class="cls-1" d="M116.28,62.75a2.2,2.2,0,0,1-1.52-.54,1.94,1.94,0,0,1-.61-1.53,2,2,0,0,1,1.07-1.84,8.79,8.79,0,0,1,3.4-.89,3.37,3.37,0,0,0-.07-.67,1.69,1.69,0,0,0-.23-.58,1.23,1.23,0,0,0-.46-.41,1.56,1.56,0,0,0-.74-.16,3,3,0,0,0-1.19.24,5.75,5.75,0,0,0-1,.54l-.48-.86a8,8,0,0,1,1.24-.64,4.16,4.16,0,0,1,1.62-.31,2.24,2.24,0,0,1,1.94.82,3.61,3.61,0,0,1,.6,2.18v4.47h-1l-.1-.87h0a6.16,6.16,0,0,1-1.12.74A2.79,2.79,0,0,1,116.28,62.75Zm.36-1a2.08,2.08,0,0,0,1-.25,5,5,0,0,0,1-.73v-2a12.6,12.6,0,0,0-1.54.28,4,4,0,0,0-1,.39,1.51,1.51,0,0,0-.56.52,1.23,1.23,0,0,0-.17.64,1,1,0,0,0,.38.9A1.53,1.53,0,0,0,116.64,61.76Z"/><path class="cls-1" d="M124.24,62.75a2.38,2.38,0,0,1-1-.18,1.69,1.69,0,0,1-.65-.5,1.93,1.93,0,0,1-.35-.76,4.37,4.37,0,0,1-.1-1v-4h-1.08v-.93l1.14-.08.15-2h1v2h2v1h-2v4a1.86,1.86,0,0,0,.25,1,1,1,0,0,0,.88.37,1.63,1.63,0,0,0,.42-.06l.4-.13.24.93a6.49,6.49,0,0,1-.65.19A3.07,3.07,0,0,1,124.24,62.75Z"/><path class="cls-1" d="M127.65,53.78a.87.87,0,0,1-.61-.22.74.74,0,0,1-.25-.57.73.73,0,0,1,.25-.58,1,1,0,0,1,1.21,0,.73.73,0,0,1,.25.58.74.74,0,0,1-.25.57A.87.87,0,0,1,127.65,53.78Zm-.63,1.5h1.23v7.29H127Z"/><path class="cls-1" d="M129.66,55.28h1.27l1.38,4.14.34,1.08.34,1.07H133l.33-1.07.33-1.08,1.38-4.14h1.22l-2.58,7.29h-1.44Z"/><path class="cls-1" d="M139.09,62.75a2.2,2.2,0,0,1-1.52-.54,1.94,1.94,0,0,1-.61-1.53A2,2,0,0,1,138,58.85a8.79,8.79,0,0,1,3.4-.89,3.37,3.37,0,0,0-.07-.67,1.69,1.69,0,0,0-.23-.58,1.23,1.23,0,0,0-.46-.41,1.56,1.56,0,0,0-.74-.16,3,3,0,0,0-1.19.24,5.75,5.75,0,0,0-1,.54l-.48-.86a8,8,0,0,1,1.24-.64,4.16,4.16,0,0,1,1.62-.31,2.24,2.24,0,0,1,1.94.82,3.61,3.61,0,0,1,.6,2.18v4.47h-1l-.1-.87h0a6.16,6.16,0,0,1-1.12.74A2.79,2.79,0,0,1,139.09,62.75Zm.36-1a2.08,2.08,0,0,0,1-.25,5,5,0,0,0,1-.73v-2a12.6,12.6,0,0,0-1.54.28,4,4,0,0,0-1,.39,1.51,1.51,0,0,0-.56.52,1.23,1.23,0,0,0-.17.64,1,1,0,0,0,.38.9A1.53,1.53,0,0,0,139.45,61.76Z"/></svg>