<?xml version="1.0" encoding="utf-8"?>
<!-- Generator: Adobe Illustrator 21.1.0, SVG Export Plug-In . SVG Version: 6.00 Build 0)  -->
<svg version="1.1" id="Layer_1" xmlns="http://www.w3.org/2000/svg" xmlns:xlink="http://www.w3.org/1999/xlink" x="0px" y="0px"
	 viewBox="0 0 297.6 74.8" style="enable-background:new 0 0 297.6 74.8;" xml:space="preserve">
<style type="text/css">
	.st0{enable-background:new    ;}
	.st1{fill:#FFFFFF;}
</style>
<title>logo</title>
<g class="st0">
	<path class="st1" d="M112.2,31.7c0.1,1.9,0.7,3.4,1.7,4.6c1,1.1,2.3,1.7,4,1.7c1.1,0,2.1-0.2,2.9-0.7c0.8-0.5,1.4-1.2,1.6-2.1h6.9
		c-0.8,2.6-2.1,4.6-4.1,6c-1.9,1.4-4.3,2.1-7,2.1c-8.4,0-12.6-4.6-12.6-13.7c0-1.9,0.3-3.7,0.8-5.3c0.5-1.6,1.3-2.9,2.4-4
		c1-1.1,2.3-2,3.8-2.6c1.5-0.6,3.2-0.9,5.2-0.9c3.9,0,6.8,1.2,8.8,3.7c2,2.5,3,6.2,3,11.3H112.2z M122.7,27.5c0-0.9-0.2-1.7-0.5-2.4
		c-0.3-0.7-0.7-1.3-1.2-1.7c-0.5-0.5-1-0.8-1.6-1c-0.6-0.2-1.2-0.3-1.9-0.3c-1.3,0-2.5,0.5-3.5,1.5s-1.5,2.3-1.7,4.1H122.7z"/>
	<path class="st1" d="M148.5,23.1h6.4v9.2c0,1.7-0.3,3.3-0.8,4.7c-0.6,1.4-1.3,2.6-2.4,3.6c-1,1-2.2,1.8-3.6,2.3
		c-1.4,0.5-3,0.8-4.7,0.8c-1.9,0-3.7-0.3-5.2-0.8c-1.5-0.5-2.8-1.3-3.8-2.3s-1.8-2.1-2.4-3.4s-0.8-2.7-0.8-4.2
		c0-0.8,0.1-1.6,0.3-2.4s0.5-1.6,0.8-2.3s0.8-1.3,1.3-1.9c0.5-0.5,1.1-1,1.6-1.2c-2.6-1.4-3.9-3.7-3.9-7.1c0-1.4,0.3-2.7,0.9-3.9
		c0.6-1.2,1.5-2.2,2.6-3c1.1-0.8,2.5-1.5,4-1.9c1.6-0.5,3.3-0.7,5.2-0.7v5.6c-2.3,0-3.9,0.4-4.9,1.1c-0.9,0.7-1.4,1.9-1.4,3.6
		c0,1.4,0.5,2.5,1.4,3.2c1,0.7,2.6,1,4.8,1v4.8c-2,0-3.6,0.4-4.8,1.3c-1.1,0.8-1.7,2.1-1.7,3.9c0,0.7,0.1,1.4,0.3,2
		c0.2,0.6,0.6,1.2,1,1.7c0.5,0.5,1,0.9,1.7,1.2c0.7,0.3,1.5,0.4,2.5,0.4c3.4,0,5.1-2,5.1-6V23.1z"/>
	<path class="st1" d="M163.2,31.7c0.1,1.9,0.7,3.4,1.7,4.6c1,1.1,2.3,1.7,4,1.7c1.1,0,2.1-0.2,2.9-0.7c0.8-0.5,1.4-1.2,1.6-2.1h6.9
		c-0.8,2.6-2.1,4.6-4.1,6c-1.9,1.4-4.3,2.1-7,2.1c-8.4,0-12.6-4.6-12.6-13.7c0-1.9,0.3-3.7,0.8-5.3c0.5-1.6,1.3-2.9,2.4-4
		s2.3-2,3.8-2.6c1.5-0.6,3.2-0.9,5.2-0.9c3.9,0,6.8,1.2,8.8,3.7c2,2.5,3,6.2,3,11.3H163.2z M173.7,27.5c0-0.9-0.2-1.7-0.5-2.4
		c-0.3-0.7-0.7-1.3-1.2-1.7c-0.5-0.5-1-0.8-1.6-1c-0.6-0.2-1.2-0.3-1.9-0.3c-1.3,0-2.5,0.5-3.5,1.5s-1.5,2.3-1.7,4.1H173.7z"/>
</g>
<g class="st0">
	<path class="st1" d="M81.6,68.1c-0.6,0-1.2-0.1-1.7-0.3s-1-0.6-1.4-1c-0.4-0.4-0.7-1-0.9-1.6c-0.2-0.6-0.3-1.4-0.3-2.2
		c0-0.8,0.1-1.5,0.3-2.1c0.2-0.6,0.5-1.2,0.9-1.6c0.4-0.4,0.9-0.8,1.4-1c0.5-0.2,1.1-0.4,1.7-0.4c0.6,0,1.1,0.1,1.6,0.4
		s0.8,0.5,1.1,0.8l-0.7,0.8c-0.3-0.3-0.6-0.5-0.9-0.7S82.1,59,81.7,59c-0.5,0-0.9,0.1-1.3,0.3c-0.4,0.2-0.7,0.5-1,0.8
		s-0.5,0.8-0.6,1.3c-0.1,0.5-0.2,1-0.2,1.6c0,0.6,0.1,1.2,0.2,1.7c0.1,0.5,0.3,0.9,0.6,1.3c0.3,0.3,0.6,0.6,1,0.8
		c0.4,0.2,0.8,0.3,1.3,0.3c0.5,0,0.9-0.1,1.3-0.3c0.4-0.2,0.7-0.5,1-0.8l0.7,0.8c-0.4,0.5-0.8,0.8-1.3,1
		C82.8,67.9,82.3,68.1,81.6,68.1z"/>
	<path class="st1" d="M89.2,68.1c-0.4,0-0.9-0.1-1.3-0.3c-0.4-0.2-0.8-0.4-1.1-0.7s-0.6-0.7-0.7-1.2c-0.2-0.5-0.3-1-0.3-1.6
		c0-0.6,0.1-1.2,0.3-1.6c0.2-0.5,0.4-0.9,0.7-1.2s0.7-0.6,1.1-0.8c0.4-0.2,0.8-0.3,1.3-0.3c0.5,0,0.9,0.1,1.3,0.3
		c0.4,0.2,0.8,0.4,1.1,0.8s0.6,0.7,0.7,1.2c0.2,0.5,0.3,1,0.3,1.6c0,0.6-0.1,1.1-0.3,1.6c-0.2,0.5-0.4,0.9-0.7,1.2s-0.7,0.6-1.1,0.7
		C90,68,89.6,68.1,89.2,68.1z M89.2,67c0.3,0,0.6-0.1,0.9-0.2c0.3-0.1,0.5-0.3,0.7-0.6s0.3-0.5,0.4-0.9c0.1-0.3,0.1-0.7,0.1-1.1
		s-0.1-0.8-0.1-1.1c-0.1-0.3-0.2-0.6-0.4-0.9s-0.4-0.4-0.7-0.6c-0.3-0.1-0.5-0.2-0.9-0.2s-0.6,0.1-0.9,0.2c-0.3,0.1-0.5,0.3-0.7,0.6
		s-0.3,0.5-0.4,0.9c-0.1,0.3-0.2,0.7-0.2,1.1s0.1,0.8,0.2,1.1c0.1,0.3,0.2,0.6,0.4,0.9s0.4,0.4,0.7,0.6C88.6,67,88.9,67,89.2,67z"/>
	<path class="st1" d="M94.5,60.6h1l0.1,1h0c0.3-0.3,0.7-0.6,1-0.9c0.4-0.2,0.8-0.4,1.2-0.4c0.6,0,1,0.1,1.3,0.4s0.5,0.6,0.7,1
		c0.4-0.4,0.8-0.8,1.1-1c0.4-0.3,0.8-0.4,1.3-0.4c0.8,0,1.3,0.2,1.7,0.7c0.4,0.5,0.5,1.2,0.5,2.1v4.6h-1.2v-4.5
		c0-0.7-0.1-1.2-0.3-1.5c-0.2-0.3-0.6-0.5-1-0.5c-0.5,0-1.2,0.4-1.8,1.1v5.3h-1.2v-4.5c0-0.7-0.1-1.2-0.3-1.5
		c-0.2-0.3-0.6-0.5-1-0.5c-0.6,0-1.2,0.4-1.8,1.1v5.3h-1.2V60.6z"/>
	<path class="st1" d="M109,68.1c-0.8,0-1.3-0.2-1.7-0.7c-0.4-0.5-0.5-1.2-0.5-2.1v-4.6h1.2V65c0,0.7,0.1,1.2,0.3,1.5
		c0.2,0.3,0.6,0.5,1,0.5c0.4,0,0.7-0.1,1-0.3c0.3-0.2,0.6-0.5,1-0.9v-5.2h1.2v7.3h-1l-0.1-1.1h0c-0.3,0.4-0.7,0.7-1.1,1
		C110,67.9,109.5,68.1,109,68.1z"/>
	<path class="st1" d="M115.1,60.6h1l0.1,1h0c0.4-0.3,0.7-0.6,1.1-0.9c0.4-0.2,0.8-0.4,1.3-0.4c0.8,0,1.3,0.2,1.7,0.7
		c0.4,0.5,0.5,1.2,0.5,2.1v4.6h-1.2v-4.5c0-0.7-0.1-1.2-0.3-1.5s-0.6-0.5-1-0.5c-0.4,0-0.7,0.1-1,0.3c-0.3,0.2-0.6,0.5-1,0.8v5.3
		h-1.2V60.6z"/>
	<path class="st1" d="M123.9,59.1c-0.2,0-0.4-0.1-0.6-0.2c-0.2-0.2-0.2-0.3-0.2-0.6c0-0.2,0.1-0.4,0.2-0.6c0.2-0.1,0.4-0.2,0.6-0.2
		c0.2,0,0.4,0.1,0.6,0.2c0.2,0.1,0.2,0.3,0.2,0.6c0,0.2-0.1,0.4-0.2,0.6C124.3,59,124.1,59.1,123.9,59.1z M123.3,60.6h1.2v7.3h-1.2
		V60.6z"/>
</g>
<g class="st0">
	<path class="st1" d="M129.8,68.1c-0.5,0-0.9-0.1-1.4-0.3c-0.4-0.2-0.8-0.4-1.1-0.7s-0.5-0.7-0.7-1.2c-0.2-0.5-0.3-1-0.3-1.6
		c0-0.6,0.1-1.2,0.3-1.6c0.2-0.5,0.4-0.9,0.8-1.2c0.3-0.3,0.7-0.6,1.1-0.8c0.4-0.2,0.9-0.3,1.3-0.3c0.5,0,0.9,0.1,1.2,0.3
		c0.3,0.2,0.6,0.4,0.9,0.6l-0.6,0.8c-0.2-0.2-0.4-0.3-0.7-0.5c-0.2-0.1-0.5-0.2-0.8-0.2c-0.3,0-0.6,0.1-0.9,0.2
		c-0.3,0.1-0.5,0.3-0.7,0.6s-0.4,0.5-0.5,0.9c-0.1,0.3-0.2,0.7-0.2,1.1s0.1,0.8,0.2,1.1s0.3,0.6,0.5,0.9c0.2,0.2,0.4,0.4,0.7,0.6
		c0.3,0.1,0.6,0.2,0.9,0.2c0.3,0,0.7-0.1,0.9-0.2c0.3-0.1,0.5-0.3,0.8-0.5l0.5,0.8c-0.3,0.3-0.7,0.5-1.1,0.7
		C130.7,68,130.3,68.1,129.8,68.1z"/>
</g>
<g class="st0">
	<path class="st1" d="M135.3,68.1c-0.6,0-1.1-0.2-1.5-0.5c-0.4-0.4-0.6-0.9-0.6-1.5c0-0.8,0.4-1.4,1.1-1.8c0.7-0.4,1.8-0.7,3.4-0.9
		c0-0.2,0-0.5-0.1-0.7s-0.1-0.4-0.2-0.6c-0.1-0.2-0.3-0.3-0.5-0.4c-0.2-0.1-0.4-0.2-0.7-0.2c-0.4,0-0.8,0.1-1.2,0.2s-0.7,0.3-1,0.5
		l-0.5-0.9c0.3-0.2,0.8-0.4,1.2-0.6c0.5-0.2,1-0.3,1.6-0.3c0.9,0,1.5,0.3,1.9,0.8s0.6,1.3,0.6,2.2v4.5h-1l-0.1-0.9h0
		c-0.4,0.3-0.7,0.5-1.1,0.7C136.2,68,135.8,68.1,135.3,68.1z M135.7,67.1c0.4,0,0.7-0.1,1-0.2s0.6-0.4,1-0.7v-2
		c-0.6,0.1-1.1,0.2-1.5,0.3c-0.4,0.1-0.8,0.2-1,0.4c-0.3,0.1-0.4,0.3-0.6,0.5c-0.1,0.2-0.2,0.4-0.2,0.6c0,0.4,0.1,0.7,0.4,0.9
		S135.3,67.1,135.7,67.1z"/>
	<path class="st1" d="M144.1,68.1c-0.5,0-0.9-0.1-1.4-0.3c-0.4-0.2-0.8-0.4-1.1-0.7s-0.5-0.7-0.7-1.2c-0.2-0.5-0.3-1-0.3-1.6
		c0-0.6,0.1-1.2,0.3-1.6c0.2-0.5,0.4-0.9,0.8-1.2c0.3-0.3,0.7-0.6,1.1-0.8c0.4-0.2,0.9-0.3,1.3-0.3c0.5,0,0.9,0.1,1.2,0.3
		c0.3,0.2,0.6,0.4,0.9,0.6l-0.6,0.8c-0.2-0.2-0.4-0.3-0.7-0.5c-0.2-0.1-0.5-0.2-0.8-0.2c-0.3,0-0.6,0.1-0.9,0.2
		c-0.3,0.1-0.5,0.3-0.7,0.6s-0.4,0.5-0.5,0.9c-0.1,0.3-0.2,0.7-0.2,1.1s0.1,0.8,0.2,1.1s0.3,0.6,0.5,0.9c0.2,0.2,0.4,0.4,0.7,0.6
		c0.3,0.1,0.6,0.2,0.9,0.2c0.3,0,0.7-0.1,0.9-0.2c0.3-0.1,0.5-0.3,0.8-0.5l0.5,0.8c-0.3,0.3-0.7,0.5-1.1,0.7
		C144.9,68,144.5,68.1,144.1,68.1z"/>
	<path class="st1" d="M148.7,59.1c-0.2,0-0.4-0.1-0.6-0.2c-0.2-0.2-0.2-0.3-0.2-0.6c0-0.2,0.1-0.4,0.2-0.6c0.2-0.1,0.4-0.2,0.6-0.2
		c0.2,0,0.4,0.1,0.6,0.2c0.2,0.1,0.2,0.3,0.2,0.6c0,0.2-0.1,0.4-0.2,0.6C149.1,59,148.9,59.1,148.7,59.1z M148,60.6h1.2v7.3H148
		V60.6z"/>
	<path class="st1" d="M154.6,68.1c-0.4,0-0.9-0.1-1.3-0.3s-0.8-0.4-1.1-0.7c-0.3-0.3-0.6-0.7-0.7-1.2c-0.2-0.5-0.3-1-0.3-1.6
		c0-0.6,0.1-1.2,0.3-1.6c0.2-0.5,0.4-0.9,0.7-1.2c0.3-0.3,0.7-0.6,1.1-0.8s0.8-0.3,1.3-0.3c0.5,0,0.9,0.1,1.3,0.3
		c0.4,0.2,0.8,0.4,1.1,0.8c0.3,0.3,0.6,0.7,0.7,1.2c0.2,0.5,0.3,1,0.3,1.6c0,0.6-0.1,1.1-0.3,1.6c-0.2,0.5-0.4,0.9-0.7,1.2
		c-0.3,0.3-0.7,0.6-1.1,0.7C155.4,68,155,68.1,154.6,68.1z M154.6,67c0.3,0,0.6-0.1,0.9-0.2c0.3-0.1,0.5-0.3,0.7-0.6
		c0.2-0.2,0.3-0.5,0.4-0.9s0.2-0.7,0.2-1.1s-0.1-0.8-0.2-1.1s-0.2-0.6-0.4-0.9c-0.2-0.3-0.4-0.4-0.7-0.6c-0.3-0.1-0.5-0.2-0.9-0.2
		c-0.3,0-0.6,0.1-0.9,0.2c-0.3,0.1-0.5,0.3-0.7,0.6c-0.2,0.3-0.3,0.5-0.4,0.9c-0.1,0.3-0.2,0.7-0.2,1.1s0,0.8,0.2,1.1
		c0.1,0.3,0.2,0.6,0.4,0.9c0.2,0.2,0.4,0.4,0.7,0.6C154,67,154.3,67,154.6,67z M153.7,58.7l2.1-2.5l0.9,0.8l-2.4,2.3L153.7,58.7z"/>
	<path class="st1" d="M159.9,60.6h1l0.1,1h0c0.4-0.3,0.7-0.6,1.1-0.9c0.4-0.2,0.8-0.4,1.3-0.4c0.8,0,1.3,0.2,1.7,0.7
		c0.4,0.5,0.5,1.2,0.5,2.1v4.6h-1.2v-4.5c0-0.7-0.1-1.2-0.3-1.5s-0.6-0.5-1-0.5c-0.4,0-0.7,0.1-1,0.3c-0.3,0.2-0.6,0.5-1,0.8v5.3
		h-1.2V60.6z"/>
	<path class="st1" d="M174.9,68.1c-0.6,0-1.2-0.1-1.7-0.3c-0.5-0.2-1-0.6-1.4-1c-0.4-0.4-0.7-1-0.9-1.6s-0.3-1.4-0.3-2.2
		c0-0.8,0.1-1.5,0.3-2.1s0.5-1.2,0.9-1.6c0.4-0.4,0.8-0.8,1.4-1c0.5-0.2,1.1-0.4,1.7-0.4c0.6,0,1.1,0.1,1.6,0.4s0.8,0.5,1.1,0.8
		l-0.7,0.8c-0.3-0.3-0.6-0.5-0.9-0.7S175.4,59,175,59c-0.5,0-0.9,0.1-1.3,0.3c-0.4,0.2-0.7,0.5-1,0.8c-0.3,0.3-0.5,0.8-0.6,1.3
		c-0.1,0.5-0.2,1-0.2,1.6c0,0.6,0.1,1.2,0.2,1.7c0.1,0.5,0.3,0.9,0.6,1.3c0.3,0.3,0.6,0.6,1,0.8c0.4,0.2,0.8,0.3,1.3,0.3
		c0.5,0,0.9-0.1,1.3-0.3c0.4-0.2,0.7-0.5,1-0.8l0.7,0.8c-0.4,0.5-0.8,0.8-1.3,1C176.1,67.9,175.5,68.1,174.9,68.1z"/>
</g>
<g class="st0">
	<path class="st1" d="M179.6,60.6h1l0.1,1.3h0c0.3-0.5,0.6-0.8,0.9-1.1c0.4-0.3,0.7-0.4,1.2-0.4c0.3,0,0.5,0,0.8,0.1l-0.2,1.1
		c-0.1,0-0.2-0.1-0.3-0.1c-0.1,0-0.2,0-0.4,0c-0.3,0-0.6,0.1-1,0.4c-0.3,0.3-0.6,0.7-0.9,1.3v4.7h-1.2V60.6z"/>
</g>
<g class="st0">
	<path class="st1" d="M187.6,68.1c-0.5,0-0.9-0.1-1.4-0.3c-0.4-0.2-0.8-0.4-1.1-0.8c-0.3-0.3-0.6-0.7-0.7-1.2
		c-0.2-0.5-0.3-1-0.3-1.6c0-0.6,0.1-1.1,0.3-1.6c0.2-0.5,0.4-0.9,0.7-1.2c0.3-0.3,0.7-0.6,1-0.8c0.4-0.2,0.8-0.3,1.2-0.3
		c0.5,0,0.9,0.1,1.2,0.2c0.4,0.2,0.7,0.4,0.9,0.7s0.4,0.7,0.6,1.1s0.2,0.9,0.2,1.4c0,0.1,0,0.3,0,0.4c0,0.1,0,0.2,0,0.3h-4.9
		c0,0.8,0.3,1.4,0.7,1.9c0.4,0.5,1,0.7,1.7,0.7c0.4,0,0.7-0.1,1-0.2c0.3-0.1,0.6-0.2,0.8-0.4l0.4,0.8c-0.3,0.2-0.7,0.4-1.1,0.5
		C188.6,68,188.1,68.1,187.6,68.1z M189.3,63.6c0-0.7-0.2-1.3-0.5-1.7c-0.3-0.4-0.8-0.6-1.3-0.6c-0.3,0-0.5,0-0.7,0.2
		c-0.2,0.1-0.4,0.2-0.6,0.4c-0.2,0.2-0.3,0.4-0.5,0.7c-0.1,0.3-0.2,0.6-0.2,1H189.3z"/>
	<path class="st1" d="M193.5,68.1c-0.6,0-1.1-0.2-1.5-0.5c-0.4-0.4-0.6-0.9-0.6-1.5c0-0.8,0.4-1.4,1.1-1.8c0.7-0.4,1.8-0.7,3.4-0.9
		c0-0.2,0-0.5-0.1-0.7s-0.1-0.4-0.2-0.6s-0.3-0.3-0.5-0.4c-0.2-0.1-0.4-0.2-0.7-0.2c-0.4,0-0.8,0.1-1.2,0.2s-0.7,0.3-1,0.5l-0.5-0.9
		c0.3-0.2,0.8-0.4,1.2-0.6c0.5-0.2,1-0.3,1.6-0.3c0.9,0,1.5,0.3,1.9,0.8c0.4,0.5,0.6,1.3,0.6,2.2v4.5h-1l-0.1-0.9h0
		c-0.4,0.3-0.7,0.5-1.1,0.7C194.4,68,193.9,68.1,193.5,68.1z M193.8,67.1c0.3,0,0.7-0.1,1-0.2c0.3-0.2,0.6-0.4,1-0.7v-2
		c-0.6,0.1-1.1,0.2-1.5,0.3c-0.4,0.1-0.8,0.2-1,0.4c-0.3,0.1-0.4,0.3-0.6,0.5c-0.1,0.2-0.2,0.4-0.2,0.6c0,0.4,0.1,0.7,0.4,0.9
		S193.5,67.1,193.8,67.1z"/>
</g>
<g class="st0">
	<path class="st1" d="M201.6,68.1c-0.4,0-0.7-0.1-1-0.2s-0.5-0.3-0.6-0.5s-0.3-0.5-0.4-0.8c-0.1-0.3-0.1-0.6-0.1-1v-4h-1.1v-0.9
		l1.1-0.1l0.1-2h1v2h2v1h-2v4c0,0.5,0.1,0.8,0.2,1s0.5,0.4,0.9,0.4c0.1,0,0.3,0,0.4-0.1c0.2,0,0.3-0.1,0.4-0.1l0.2,0.9
		c-0.2,0.1-0.4,0.1-0.7,0.2C202,68,201.8,68.1,201.6,68.1z"/>
	<path class="st1" d="M205,59.1c-0.2,0-0.4-0.1-0.6-0.2c-0.2-0.2-0.2-0.3-0.2-0.6c0-0.2,0.1-0.4,0.2-0.6c0.2-0.1,0.4-0.2,0.6-0.2
		s0.4,0.1,0.6,0.2c0.2,0.1,0.2,0.3,0.2,0.6c0,0.2-0.1,0.4-0.2,0.6C205.4,59,205.2,59.1,205,59.1z M204.3,60.6h1.2v7.3h-1.2V60.6z"/>
</g>
<g class="st0">
	<path class="st1" d="M207,60.6h1.3l1.4,4.1c0.1,0.4,0.2,0.7,0.3,1.1c0.1,0.4,0.2,0.7,0.3,1.1h0.1c0.1-0.3,0.2-0.7,0.3-1.1
		c0.1-0.4,0.2-0.7,0.3-1.1l1.4-4.1h1.2l-2.6,7.3h-1.4L207,60.6z"/>
</g>
<g class="st0">
	<path class="st1" d="M216.4,68.1c-0.6,0-1.1-0.2-1.5-0.5c-0.4-0.4-0.6-0.9-0.6-1.5c0-0.8,0.4-1.4,1.1-1.8c0.7-0.4,1.8-0.7,3.4-0.9
		c0-0.2,0-0.5-0.1-0.7s-0.1-0.4-0.2-0.6s-0.3-0.3-0.5-0.4c-0.2-0.1-0.4-0.2-0.7-0.2c-0.4,0-0.8,0.1-1.2,0.2c-0.4,0.2-0.7,0.3-1,0.5
		l-0.5-0.9c0.3-0.2,0.8-0.4,1.2-0.6s1-0.3,1.6-0.3c0.9,0,1.5,0.3,1.9,0.8c0.4,0.5,0.6,1.3,0.6,2.2v4.5h-1l-0.1-0.9h0
		c-0.4,0.3-0.7,0.5-1.1,0.7C217.3,68,216.9,68.1,216.4,68.1z M216.8,67.1c0.4,0,0.7-0.1,1-0.2s0.6-0.4,1-0.7v-2
		c-0.6,0.1-1.1,0.2-1.5,0.3c-0.4,0.1-0.8,0.2-1,0.4c-0.3,0.1-0.4,0.3-0.6,0.5c-0.1,0.2-0.2,0.4-0.2,0.6c0,0.4,0.1,0.7,0.4,0.9
		S216.4,67.1,216.8,67.1z"/>
</g>
</svg>
