<?xml version="1.0" encoding="utf-8"?>
<!-- Generator: Adobe Illustrator 21.1.0, SVG Export Plug-In . SVG Version: 6.00 Build 0)  -->
<svg version="1.1" id="Layer_1" xmlns="http://www.w3.org/2000/svg" xmlns:xlink="http://www.w3.org/1999/xlink" x="0px" y="0px"
	 viewBox="0 0 151 65.7" style="enable-background:new 0 0 151 65.7;" xml:space="preserve">
<style type="text/css">
	.st0{enable-background:new    ;}
	.st1{fill:#FFFFFF;}
</style>
<title>logo</title>
<g class="st0">
	<path class="st1" d="M38.9,26.4c0.1,1.9,0.7,3.4,1.7,4.6c1,1.1,2.3,1.7,4,1.7c1.1,0,2.1-0.2,2.9-0.7c0.8-0.5,1.4-1.2,1.6-2.1H56
		c-0.8,2.6-2.1,4.6-4.1,6c-1.9,1.4-4.3,2.1-7,2.1c-8.4,0-12.6-4.6-12.6-13.7c0-1.9,0.3-3.7,0.8-5.3c0.5-1.6,1.3-2.9,2.4-4
		c1-1.1,2.3-2,3.8-2.6s3.2-0.9,5.2-0.9c3.9,0,6.8,1.2,8.8,3.7c2,2.5,3,6.2,3,11.3L38.9,26.4L38.9,26.4z M49.4,22.2
		c0-0.9-0.2-1.7-0.5-2.4c-0.3-0.7-0.7-1.3-1.2-1.7c-0.5-0.5-1-0.8-1.6-1s-1.2-0.3-1.9-0.3c-1.3,0-2.5,0.5-3.5,1.5s-1.5,2.3-1.7,4.1
		h10.4V22.2z"/>
	<path class="st1" d="M75.2,17.8h6.4V27c0,1.7-0.3,3.3-0.8,4.7c-0.6,1.4-1.3,2.6-2.4,3.6c-1,1-2.2,1.8-3.6,2.3
		c-1.4,0.5-3,0.8-4.7,0.8c-1.9,0-3.7-0.3-5.2-0.8c-1.5-0.5-2.8-1.3-3.8-2.3s-1.8-2.1-2.4-3.4c-0.6-1.3-0.8-2.7-0.8-4.2
		c0-0.8,0.1-1.6,0.3-2.4s0.5-1.6,0.8-2.3s0.8-1.3,1.3-1.9c0.5-0.5,1.1-1,1.6-1.2c-2.6-1.4-3.9-3.7-3.9-7.1c0-1.4,0.3-2.7,0.9-3.9
		c0.6-1.2,1.5-2.2,2.6-3s2.5-1.5,4-1.9c1.6-0.5,3.3-0.7,5.2-0.7v5.6c-2.3,0-3.9,0.4-4.9,1.1c-0.9,0.7-1.4,1.9-1.4,3.6
		c0,1.4,0.5,2.5,1.4,3.2c1,0.7,2.6,1,4.8,1v4.8c-2,0-3.6,0.4-4.8,1.3c-1.1,0.8-1.7,2.1-1.7,3.9c0,0.7,0.1,1.4,0.3,2s0.6,1.2,1,1.7
		c0.5,0.5,1,0.9,1.7,1.2s1.5,0.4,2.5,0.4c3.4,0,5.1-2,5.1-6v-9.3H75.2z"/>
	<path class="st1" d="M89.9,26.4c0.1,1.9,0.7,3.4,1.7,4.6c1,1.1,2.3,1.7,4,1.7c1.1,0,2.1-0.2,2.9-0.7c0.8-0.5,1.4-1.2,1.6-2.1h6.9
		c-0.8,2.6-2.1,4.6-4.1,6c-1.9,1.4-4.3,2.1-7,2.1c-8.4,0-12.6-4.6-12.6-13.7c0-1.9,0.3-3.7,0.8-5.3c0.5-1.6,1.3-2.9,2.4-4
		s2.3-2,3.8-2.6s3.2-0.9,5.2-0.9c3.9,0,6.8,1.2,8.8,3.7s3,6.2,3,11.3L89.9,26.4L89.9,26.4z M100.4,22.2c0-0.9-0.2-1.7-0.5-2.4
		c-0.3-0.7-0.7-1.3-1.2-1.7c-0.5-0.5-1-0.8-1.6-1s-1.2-0.3-1.9-0.3c-1.3,0-2.5,0.5-3.5,1.5s-1.5,2.3-1.7,4.1h10.4V22.2z"/>
</g>
<g class="st0">
	<path class="st1" d="M8.3,62.8c-0.6,0-1.2-0.1-1.7-0.3s-1-0.6-1.4-1s-0.7-1-0.9-1.6C4.1,59.3,4,58.5,4,57.7s0.1-1.5,0.3-2.1
		C4.5,55,4.8,54.4,5.2,54c0.4-0.4,0.9-0.8,1.4-1s1.1-0.4,1.7-0.4s1.1,0.1,1.6,0.4s0.8,0.5,1.1,0.8l-0.7,0.8
		c-0.3-0.3-0.6-0.5-0.9-0.7s-0.6-0.2-1-0.2c-0.5,0-0.9,0.1-1.3,0.3s-0.7,0.5-1,0.8s-0.5,0.8-0.6,1.3s-0.2,1-0.2,1.6s0.1,1.2,0.2,1.7
		s0.3,0.9,0.6,1.3c0.3,0.3,0.6,0.6,1,0.8c0.4,0.2,0.8,0.3,1.3,0.3s0.9-0.1,1.3-0.3c0.4-0.2,0.7-0.5,1-0.8l0.7,0.8
		c-0.4,0.5-0.8,0.8-1.3,1C9.5,62.6,9,62.8,8.3,62.8z"/>
	<path class="st1" d="M15.9,62.8c-0.4,0-0.9-0.1-1.3-0.3c-0.4-0.2-0.8-0.4-1.1-0.7s-0.6-0.7-0.7-1.2c-0.2-0.5-0.3-1-0.3-1.6
		s0.1-1.2,0.3-1.6c0.2-0.5,0.4-0.9,0.7-1.2s0.7-0.6,1.1-0.8s0.8-0.3,1.3-0.3c0.5,0,0.9,0.1,1.3,0.3s0.8,0.4,1.1,0.8s0.6,0.7,0.7,1.2
		c0.2,0.5,0.3,1,0.3,1.6s-0.1,1.1-0.3,1.6c-0.2,0.5-0.4,0.9-0.7,1.2s-0.7,0.6-1.1,0.7C16.7,62.7,16.3,62.8,15.9,62.8z M15.9,61.7
		c0.3,0,0.6-0.1,0.9-0.2s0.5-0.3,0.7-0.6s0.3-0.5,0.4-0.9c0.1-0.3,0.1-0.7,0.1-1.1s-0.1-0.8-0.1-1.1c-0.1-0.3-0.2-0.6-0.4-0.9
		s-0.4-0.4-0.7-0.6c-0.3-0.1-0.5-0.2-0.9-0.2c-0.4,0-0.6,0.1-0.9,0.2c-0.3,0.1-0.5,0.3-0.7,0.6s-0.3,0.5-0.4,0.9
		c-0.1,0.3-0.2,0.7-0.2,1.1c0,0.4,0.1,0.8,0.2,1.1c0.1,0.3,0.2,0.6,0.4,0.9s0.4,0.4,0.7,0.6C15.3,61.7,15.6,61.7,15.9,61.7z"/>
	<path class="st1" d="M21.2,55.3h1l0.1,1l0,0c0.3-0.3,0.7-0.6,1-0.9c0.4-0.2,0.8-0.4,1.2-0.4c0.6,0,1,0.1,1.3,0.4s0.5,0.6,0.7,1
		c0.4-0.4,0.8-0.8,1.1-1c0.4-0.3,0.8-0.4,1.3-0.4c0.8,0,1.3,0.2,1.7,0.7c0.4,0.5,0.5,1.2,0.5,2.1v4.6h-1.2v-4.5
		c0-0.7-0.1-1.2-0.3-1.5c-0.2-0.3-0.6-0.5-1-0.5c-0.5,0-1.2,0.4-1.8,1.1v5.3h-1.2v-4.5c0-0.7-0.1-1.2-0.3-1.5
		c-0.2-0.3-0.6-0.5-1-0.5c-0.6,0-1.2,0.4-1.8,1.1v5.3h-1.2L21.2,55.3L21.2,55.3z"/>
	<path class="st1" d="M35.7,62.8c-0.8,0-1.3-0.2-1.7-0.7c-0.4-0.5-0.5-1.2-0.5-2.1v-4.6h1.2v4.3c0,0.7,0.1,1.2,0.3,1.5
		c0.2,0.3,0.6,0.5,1,0.5s0.7-0.1,1-0.3c0.3-0.2,0.6-0.5,1-0.9v-5.2h1.2v7.3h-1l-0.1-1.1l0,0c-0.3,0.4-0.7,0.7-1.1,1
		C36.7,62.6,36.2,62.8,35.7,62.8z"/>
	<path class="st1" d="M41.8,55.3h1l0.1,1l0,0c0.4-0.3,0.7-0.6,1.1-0.9c0.4-0.2,0.8-0.4,1.3-0.4c0.8,0,1.3,0.2,1.7,0.7
		c0.4,0.5,0.5,1.2,0.5,2.1v4.6h-1.2v-4.5c0-0.7-0.1-1.2-0.3-1.5s-0.6-0.5-1-0.5s-0.7,0.1-1,0.3s-0.6,0.5-1,0.8v5.3h-1.2V55.3z"/>
	<path class="st1" d="M50.6,53.8c-0.2,0-0.4-0.1-0.6-0.2c-0.2-0.2-0.2-0.3-0.2-0.6c0-0.2,0.1-0.4,0.2-0.6c0.2-0.1,0.4-0.2,0.6-0.2
		s0.4,0.1,0.6,0.2c0.2,0.1,0.2,0.3,0.2,0.6c0,0.2-0.1,0.4-0.2,0.6C51,53.7,50.8,53.8,50.6,53.8z M50,55.3h1.2v7.3H50V55.3z"/>
</g>
<g class="st0">
	<path class="st1" d="M56.5,62.8c-0.5,0-0.9-0.1-1.4-0.3c-0.4-0.2-0.8-0.4-1.1-0.7s-0.5-0.7-0.7-1.2S53,59.6,53,59s0.1-1.2,0.3-1.6
		c0.2-0.5,0.4-0.9,0.8-1.2c0.3-0.3,0.7-0.6,1.1-0.8s0.9-0.3,1.3-0.3c0.5,0,0.9,0.1,1.2,0.3s0.6,0.4,0.9,0.6L58,56.8
		c-0.2-0.2-0.4-0.3-0.7-0.5c-0.2-0.1-0.5-0.2-0.8-0.2s-0.6,0.1-0.9,0.2c-0.3,0.1-0.5,0.3-0.7,0.6s-0.4,0.5-0.5,0.9
		c-0.1,0.3-0.2,0.7-0.2,1.1s0.1,0.8,0.2,1.1s0.3,0.6,0.5,0.9c0.2,0.2,0.4,0.4,0.7,0.6c0.3,0.1,0.6,0.2,0.9,0.2
		c0.3,0,0.7-0.1,0.9-0.2c0.3-0.1,0.5-0.3,0.8-0.5l0.5,0.8c-0.3,0.3-0.7,0.5-1.1,0.7C57.4,62.7,57,62.8,56.5,62.8z"/>
</g>
<g class="st0">
	<path class="st1" d="M62,62.8c-0.6,0-1.1-0.2-1.5-0.5c-0.4-0.4-0.6-0.9-0.6-1.5c0-0.8,0.4-1.4,1.1-1.8c0.7-0.4,1.8-0.7,3.4-0.9
		c0-0.2,0-0.5-0.1-0.7s-0.1-0.4-0.2-0.6c-0.1-0.2-0.3-0.3-0.5-0.4c-0.2-0.1-0.4-0.2-0.7-0.2c-0.4,0-0.8,0.1-1.2,0.2s-0.7,0.3-1,0.5
		L60.2,56c0.3-0.2,0.8-0.4,1.2-0.6c0.5-0.2,1-0.3,1.6-0.3c0.9,0,1.5,0.3,1.9,0.8s0.6,1.3,0.6,2.2v4.5h-1l-0.1-0.9l0,0
		c-0.4,0.3-0.7,0.5-1.1,0.7C62.9,62.7,62.5,62.8,62,62.8z M62.4,61.8c0.4,0,0.7-0.1,1-0.2s0.6-0.4,1-0.7v-2
		c-0.6,0.1-1.1,0.2-1.5,0.3c-0.4,0.1-0.8,0.2-1,0.4c-0.3,0.1-0.4,0.3-0.6,0.5c-0.1,0.2-0.2,0.4-0.2,0.6c0,0.4,0.1,0.7,0.4,0.9
		S62,61.8,62.4,61.8z"/>
	<path class="st1" d="M70.8,62.8c-0.5,0-0.9-0.1-1.4-0.3c-0.4-0.2-0.8-0.4-1.1-0.7s-0.5-0.7-0.7-1.2s-0.3-1-0.3-1.6s0.1-1.2,0.3-1.6
		c0.2-0.5,0.4-0.9,0.8-1.2c0.3-0.3,0.7-0.6,1.1-0.8c0.4-0.2,0.9-0.3,1.3-0.3c0.5,0,0.9,0.1,1.2,0.3s0.6,0.4,0.9,0.6l-0.6,0.8
		c-0.2-0.2-0.4-0.3-0.7-0.5c-0.2-0.1-0.5-0.2-0.8-0.2s-0.6,0.1-0.9,0.2c-0.3,0.1-0.5,0.3-0.7,0.6s-0.4,0.5-0.5,0.9
		c-0.1,0.3-0.2,0.7-0.2,1.1s0.1,0.8,0.2,1.1s0.3,0.6,0.5,0.9c0.2,0.2,0.4,0.4,0.7,0.6c0.3,0.1,0.6,0.2,0.9,0.2
		c0.3,0,0.7-0.1,0.9-0.2c0.3-0.1,0.5-0.3,0.8-0.5l0.5,0.8c-0.3,0.3-0.7,0.5-1.1,0.7C71.6,62.7,71.2,62.8,70.8,62.8z"/>
	<path class="st1" d="M75.4,53.8c-0.2,0-0.4-0.1-0.6-0.2c-0.2-0.2-0.2-0.3-0.2-0.6c0-0.2,0.1-0.4,0.2-0.6c0.2-0.1,0.4-0.2,0.6-0.2
		c0.2,0,0.4,0.1,0.6,0.2c0.2,0.1,0.2,0.3,0.2,0.6c0,0.2-0.1,0.4-0.2,0.6C75.8,53.7,75.6,53.8,75.4,53.8z M74.7,55.3h1.2v7.3h-1.2
		V55.3z"/>
	<path class="st1" d="M81.3,62.8c-0.4,0-0.9-0.1-1.3-0.3s-0.8-0.4-1.1-0.7c-0.3-0.3-0.6-0.7-0.7-1.2c-0.2-0.5-0.3-1-0.3-1.6
		s0.1-1.2,0.3-1.6c0.2-0.5,0.4-0.9,0.7-1.2s0.7-0.6,1.1-0.8s0.8-0.3,1.3-0.3s0.9,0.1,1.3,0.3c0.4,0.2,0.8,0.4,1.1,0.8
		c0.3,0.3,0.6,0.7,0.7,1.2c0.2,0.5,0.3,1,0.3,1.6s-0.1,1.1-0.3,1.6s-0.4,0.9-0.7,1.2c-0.3,0.3-0.7,0.6-1.1,0.7
		C82.1,62.7,81.7,62.8,81.3,62.8z M81.3,61.7c0.3,0,0.6-0.1,0.9-0.2c0.3-0.1,0.5-0.3,0.7-0.6c0.2-0.2,0.3-0.5,0.4-0.9
		s0.2-0.7,0.2-1.1s-0.1-0.8-0.2-1.1s-0.2-0.6-0.4-0.9c-0.2-0.3-0.4-0.4-0.7-0.6c-0.3-0.1-0.5-0.2-0.9-0.2c-0.3,0-0.6,0.1-0.9,0.2
		c-0.3,0.1-0.5,0.3-0.7,0.6s-0.3,0.5-0.4,0.9c-0.1,0.3-0.2,0.7-0.2,1.1c0,0.4,0,0.8,0.2,1.1c0.1,0.3,0.2,0.6,0.4,0.9
		c0.2,0.2,0.4,0.4,0.7,0.6C80.7,61.7,81,61.7,81.3,61.7z M80.4,53.4l2.1-2.5l0.9,0.8L81,54L80.4,53.4z"/>
	<path class="st1" d="M86.6,55.3h1l0.1,1l0,0c0.4-0.3,0.7-0.6,1.1-0.9c0.4-0.2,0.8-0.4,1.3-0.4c0.8,0,1.3,0.2,1.7,0.7
		s0.5,1.2,0.5,2.1v4.6h-1.2v-4.5c0-0.7-0.1-1.2-0.3-1.5s-0.6-0.5-1-0.5s-0.7,0.1-1,0.3s-0.6,0.5-1,0.8v5.3h-1.2L86.6,55.3L86.6,55.3
		z"/>
	<path class="st1" d="M101.6,62.8c-0.6,0-1.2-0.1-1.7-0.3c-0.5-0.2-1-0.6-1.4-1s-0.7-1-0.9-1.6s-0.3-1.4-0.3-2.2s0.1-1.5,0.3-2.1
		s0.5-1.2,0.9-1.6c0.4-0.4,0.8-0.8,1.4-1c0.5-0.2,1.1-0.4,1.7-0.4c0.6,0,1.1,0.1,1.6,0.4s0.8,0.5,1.1,0.8l-0.7,0.8
		c-0.3-0.3-0.6-0.5-0.9-0.7s-0.6-0.2-1-0.2c-0.5,0-0.9,0.1-1.3,0.3c-0.4,0.2-0.7,0.5-1,0.8s-0.5,0.8-0.6,1.3s-0.2,1-0.2,1.6
		s0.1,1.2,0.2,1.7c0.1,0.5,0.3,0.9,0.6,1.3c0.3,0.3,0.6,0.6,1,0.8c0.4,0.2,0.8,0.3,1.3,0.3s0.9-0.1,1.3-0.3c0.4-0.2,0.7-0.5,1-0.8
		l0.7,0.8c-0.4,0.5-0.8,0.8-1.3,1C102.8,62.6,102.2,62.8,101.6,62.8z"/>
</g>
<g class="st0">
	<path class="st1" d="M106.3,55.3h1l0.1,1.3l0,0c0.3-0.5,0.6-0.8,0.9-1.1c0.4-0.3,0.7-0.4,1.2-0.4c0.3,0,0.5,0,0.8,0.1l-0.2,1.1
		c-0.1,0-0.2-0.1-0.3-0.1s-0.2,0-0.4,0c-0.3,0-0.6,0.1-1,0.4c-0.3,0.3-0.6,0.7-0.9,1.3v4.7h-1.2L106.3,55.3L106.3,55.3z"/>
</g>
<g class="st0">
	<path class="st1" d="M114.3,62.8c-0.5,0-0.9-0.1-1.4-0.3c-0.4-0.2-0.8-0.4-1.1-0.8c-0.3-0.3-0.6-0.7-0.7-1.2
		c-0.2-0.5-0.3-1-0.3-1.6s0.1-1.1,0.3-1.6s0.4-0.9,0.7-1.2s0.7-0.6,1-0.8c0.4-0.2,0.8-0.3,1.2-0.3c0.5,0,0.9,0.1,1.2,0.2
		c0.4,0.2,0.7,0.4,0.9,0.7s0.4,0.7,0.6,1.1s0.2,0.9,0.2,1.4c0,0.1,0,0.3,0,0.4s0,0.2,0,0.3H112c0,0.8,0.3,1.4,0.7,1.9s1,0.7,1.7,0.7
		c0.4,0,0.7-0.1,1-0.2s0.6-0.2,0.8-0.4l0.4,0.8c-0.3,0.2-0.7,0.4-1.1,0.5C115.3,62.7,114.8,62.8,114.3,62.8z M116,58.3
		c0-0.7-0.2-1.3-0.5-1.7s-0.8-0.6-1.3-0.6c-0.3,0-0.5,0-0.7,0.2c-0.2,0.1-0.4,0.2-0.6,0.4c-0.2,0.2-0.3,0.4-0.5,0.7
		c-0.1,0.3-0.2,0.6-0.2,1C112.2,58.3,116,58.3,116,58.3z"/>
	<path class="st1" d="M120.2,62.8c-0.6,0-1.1-0.2-1.5-0.5c-0.4-0.4-0.6-0.9-0.6-1.5c0-0.8,0.4-1.4,1.1-1.8c0.7-0.4,1.8-0.7,3.4-0.9
		c0-0.2,0-0.5-0.1-0.7s-0.1-0.4-0.2-0.6s-0.3-0.3-0.5-0.4c-0.2-0.1-0.4-0.2-0.7-0.2c-0.4,0-0.8,0.1-1.2,0.2s-0.7,0.3-1,0.5l-0.5-0.9
		c0.3-0.2,0.8-0.4,1.2-0.6c0.5-0.2,1-0.3,1.6-0.3c0.9,0,1.5,0.3,1.9,0.8s0.6,1.3,0.6,2.2v4.5h-1l-0.1-0.9l0,0
		c-0.4,0.3-0.7,0.5-1.1,0.7C121.1,62.7,120.6,62.8,120.2,62.8z M120.5,61.8c0.3,0,0.7-0.1,1-0.2c0.3-0.2,0.6-0.4,1-0.7v-2
		c-0.6,0.1-1.1,0.2-1.5,0.3c-0.4,0.1-0.8,0.2-1,0.4c-0.3,0.1-0.4,0.3-0.6,0.5c-0.1,0.2-0.2,0.4-0.2,0.6c0,0.4,0.1,0.7,0.4,0.9
		S120.2,61.8,120.5,61.8z"/>
</g>
<g class="st0">
	<path class="st1" d="M128.3,62.8c-0.4,0-0.7-0.1-1-0.2s-0.5-0.3-0.6-0.5s-0.3-0.5-0.4-0.8c-0.1-0.3-0.1-0.6-0.1-1v-4h-1.1v-0.9
		l1.1-0.1l0.1-2h1v2h2v1h-2v4c0,0.5,0.1,0.8,0.2,1s0.5,0.4,0.9,0.4c0.1,0,0.3,0,0.4-0.1c0.2,0,0.3-0.1,0.4-0.1l0.2,0.9
		c-0.2,0.1-0.4,0.1-0.7,0.2C128.7,62.7,128.5,62.8,128.3,62.8z"/>
	<path class="st1" d="M131.7,53.8c-0.2,0-0.4-0.1-0.6-0.2c-0.2-0.2-0.2-0.3-0.2-0.6c0-0.2,0.1-0.4,0.2-0.6c0.2-0.1,0.4-0.2,0.6-0.2
		s0.4,0.1,0.6,0.2c0.2,0.1,0.2,0.3,0.2,0.6c0,0.2-0.1,0.4-0.2,0.6C132.1,53.7,131.9,53.8,131.7,53.8z M131,55.3h1.2v7.3H131V55.3z"
		/>
</g>
<g class="st0">
	<path class="st1" d="M133.7,55.3h1.3l1.4,4.1c0.1,0.4,0.2,0.7,0.3,1.1s0.2,0.7,0.3,1.1h0.1c0.1-0.3,0.2-0.7,0.3-1.1
		s0.2-0.7,0.3-1.1l1.4-4.1h1.2l-2.6,7.3h-1.4L133.7,55.3z"/>
</g>
<g class="st0">
	<path class="st1" d="M143.1,62.8c-0.6,0-1.1-0.2-1.5-0.5c-0.4-0.4-0.6-0.9-0.6-1.5c0-0.8,0.4-1.4,1.1-1.8c0.7-0.4,1.8-0.7,3.4-0.9
		c0-0.2,0-0.5-0.1-0.7s-0.1-0.4-0.2-0.6s-0.3-0.3-0.5-0.4c-0.2-0.1-0.4-0.2-0.7-0.2c-0.4,0-0.8,0.1-1.2,0.2c-0.4,0.2-0.7,0.3-1,0.5
		l-0.5-0.9c0.3-0.2,0.8-0.4,1.2-0.6s1-0.3,1.6-0.3c0.9,0,1.5,0.3,1.9,0.8s0.6,1.3,0.6,2.2v4.5h-1l-0.1-0.9l0,0
		c-0.4,0.3-0.7,0.5-1.1,0.7C144,62.7,143.6,62.8,143.1,62.8z M143.5,61.8c0.4,0,0.7-0.1,1-0.2s0.6-0.4,1-0.7v-2
		c-0.6,0.1-1.1,0.2-1.5,0.3c-0.4,0.1-0.8,0.2-1,0.4c-0.3,0.1-0.4,0.3-0.6,0.5c-0.1,0.2-0.2,0.4-0.2,0.6c0,0.4,0.1,0.7,0.4,0.9
		S143.1,61.8,143.5,61.8z"/>
</g>
</svg>
